<?xml version="1.0" encoding="utf-8"?>
<!-- Generator: Adobe Illustrator 22.1.0, SVG Export Plug-In . SVG Version: 6.00 Build 0)  -->
<svg version="1.1" xmlns="http://www.w3.org/2000/svg" xmlns:xlink="http://www.w3.org/1999/xlink" x="0px" y="0px"
	 viewBox="0 0 1400 980" style="enable-background:new 0 0 1400 980;" xml:space="preserve">
<style type="text/css">
	.st0{fill:#FFFFFF;}
	.st1{fill:#F9E8E8;}
	.st2{fill:#602E3A;}
	.st3{fill:#440235;}
	.st4{fill:#7EA36A;}
	.st5{fill:#A4D38F;}
	.st6{fill:#6B3D44;}
	.st7{fill:#EF5EA2;}
	.st8{fill:#A8336D;}
	.st9{fill:#273941;}
	.st10{fill:#FD9B52;}
	.st11{fill:#8681BD;}
	.st12{fill:#53518E;}
</style>
<g id="Background">
	<g>
		<rect x="0" class="st0" width="1400" height="980"/>
		<path class="st1" d="M641.6,189.1C721.4,121.1,805.7,57.5,893.9,0H0v561.8c132.7-24.6,260.5-76,372.5-151.3
			C469,345.6,553.1,264.4,641.6,189.1z"/>
		<path class="st1" d="M749.2,884.6c-75.5,44.1-158.6,72.5-243.2,95.4H1400V0h-111.5c-50.3,101.3-83.9,210.3-123.9,316.3
			C1080.1,540.2,955.8,763.7,749.2,884.6z"/>
	</g>
	<g id="Layer_1_1_">
	</g>
	<g id="Layer_2">
	</g>
	<g id="Layer_1_2_">
	</g>
</g>
<g id="object">
	<g>
		<path class="st2" d="M416.4,185.2c-17.3,5.2-34.7,10.4-52.3,14.7c-1.2-0.1-2.3,0.2-3.3,0.8c-16.1,3.9-32.4,7-49,8.6
			c-16.8,1.6-33.7,1.7-50.4-0.3c-8.4-1.1-16.8-2.7-24.9-5c-0.6-0.2-1.1-0.3-1.7-0.5c20.9-20.1,41.8-40.2,62.7-60.3
			c20.8-20,58.3-23,71.1-48.8c16.1-32.5,39.3-65.7,61.7-94.4H413c-8.3,9.6-16.4,19.5-24.2,29.5c-6.1,7.8-12,15.8-18.8,23.1
			c-21,22.7-49,37.5-76.4,51.8c-20.9,10.9-39.2,25.9-57.1,41.5c-6.7-18.9-17.1-36.4-30.5-51.5c-4.7-5.3-12.5,2.5-7.8,7.8
			c13.3,15,23.2,32.6,29.3,51.6c-21.6,19-43.3,37.9-68.9,50.5c-12.6,6.2-25.9,11.7-36.4,21.1C104.4,152.2,96.2,74.6,106.6,0H0v980
			h125.7l-1.7-18.8C106.4,764.8,88.7,566.5,113.9,371c2.6-19.9,1.7-37.7,11.8-55c10.1-17.3,24.7-31.4,39.1-45.3
			c20.3-19.5,40.6-39,60.9-58.6c7.4,2.5,15,4.4,22.6,5.8c18.5,3.5,37.5,4.2,56.2,2.9c20-1.4,39.6-5,59-9.6
			c14.4,6.1,28.7,12.2,43.1,18.3c6.4,2.7,12.1-6.7,5.6-9.5c-10.4-4.4-20.8-8.8-31.2-13.3c12.8-3.5,25.5-7.2,38.2-11
			C426.1,193.8,423.2,183.2,416.4,185.2z"/>
		<path class="st3" d="M416.4,185.2c-17.3,5.2-34.7,10.4-52.3,14.7c-1.2-0.1-2.3,0.2-3.3,0.8c-16.1,3.9-32.4,7-49,8.6
			c-16.8,1.6-33.7,1.7-50.4-0.3c-8.4-1.1-16.8-2.7-24.9-5c-0.6-0.2-1.1-0.3-1.7-0.5c20.9-20.1,41.8-40.2,62.7-60.3
			c20.8-20,58.3-23,71.1-48.8c9.4-18.9,21.2-38.1,33.8-56.4c-12.2,10.7-23.6,22.5-33.9,35.1c-13.3,16.3-26.4,35.3-46.8,40.5
			c5.1-6.6,10.1-13.3,15.2-19.9c-15.2,11.9-25.4,20.3-39.3,33.7c-20.8,20-41.6,40-62.4,60c3.3-11.4,2.3-24-2.9-34.6
			c-1-2-2.1-4-4-5.1c-1-0.6-2.1-0.9-3.2-0.9c0.9,2.4,1.7,4.7,2.5,7.1c-16.5,14.5-33,28.9-51.3,40.5c9.3,8.4,20.3,14.9,32.1,19
			c-14.8,15.2-35.6,21.2-44.1,40.6c-0.5,1.1-1.6,1.9-2.8,2.1c2-4.6,3.2-9.6,3.5-14.7c-15.3,13.4-28,29.5-40.5,45.5
			c-0.8,1-1.6,2.1-1.8,3.3c-0.2,1.2,0.2,2.4,0.5,3.5c1.8,5.8,3.6,11.7,5.5,17.5c9.9-15.1,23.1-27.9,36.1-40.4
			c20.3-19.5,40.6-39,60.9-58.6c7.4,2.5,15,4.4,22.6,5.8c18.5,3.5,37.5,4.2,56.2,2.9c20-1.4,39.6-5,59-9.6
			c14.4,6.1,28.7,12.2,43.1,18.3c6.4,2.7,12.1-6.7,5.6-9.5c-10.4-4.4-20.8-8.8-31.2-13.3c12.8-3.5,25.5-7.2,38.2-11
			C426.1,193.8,423.2,183.2,416.4,185.2z"/>
		<path class="st3" d="M31.9,722.8C30.2,594.1,36,465.3,49.5,337.3c7.2,23.4,11.9,45.1,19.1,68.4c-5.2-47.2-10.3-94.4-15.5-141.6
			c-2.4-22-4.8-44.1-8.8-65.9c-4.2-23.3-10.1-46.2-14.7-69.3c-8.3-42.4-12-85.7-11-128.9H0v980h38.4C37,925.9,35.5,871.7,34,816.8
			C33.1,785.5,32.3,754.1,31.9,722.8z"/>
		<g>
			<path class="st4" d="M437.4,228.9c18.2,10,39,14.7,59.7,15.7c-3.1-9.6-8.9-18.1-15-26.1c-6.1-8-12.6-15.7-20.4-22
				c-13.2-10.6-30-16.3-46.8-16.6c-6.3-0.1-16.3-1.1-16,7.6c0.3,7.8,8.4,16.3,13.3,21.7C419.4,217.1,428,223.7,437.4,228.9z"/>
			<path class="st4" d="M260.6,89.2c15.2-14.1,26.2-32.4,33.6-51.8c-10.1-0.1-20,2.8-29.5,6.1c-9.5,3.3-18.9,7-27.3,12.4
				c-14.2,9.2-24.9,23.3-30.5,39.2c-2.1,6-6.1,15.2,2.2,17.6c7.5,2.2,18.1-2.9,24.8-5.8C243.7,102.6,252.7,96.5,260.6,89.2z"/>
			<path class="st4" d="M166.1,141.9c-19.9-5.9-37.8-17.4-53.1-31.5c9-4.5,19.1-6.3,29.1-7.6c9.9-1.3,20-2.1,30-0.9
				c16.8,1.9,32.7,9.9,44.7,21.7c4.5,4.4,12.2,10.9,5.8,16.8c-5.7,5.3-17.5,5.5-24.8,5.8C187.2,146.4,176.4,144.9,166.1,141.9z"/>
			<path class="st4" d="M382.3,190c15.2-14.2,26.1-32.5,33.4-51.9c-10.1,0-20,2.9-29.5,6.2c-9.5,3.3-18.8,7.1-27.2,12.5
				c-14.1,9.2-24.8,23.4-30.3,39.4c-2.1,6-6.1,15.2,2.3,17.6c7.5,2.2,18.1-2.9,24.8-5.9C365.4,203.5,374.4,197.4,382.3,190z"/>
			<path class="st4" d="M406.5,250.3c5.9,10.6,14.8,19.5,24.8,26.4c1.4-5.7,1.2-11.8,0.7-17.7c-0.5-5.9-1.3-11.7-3.3-17.3
				c-3.2-9.4-9.8-17.5-18.1-22.8c-3.1-2-7.8-5.6-10.3-1.2c-2.3,4-0.9,10.7-0.1,14.9C401.2,238.8,403.4,244.8,406.5,250.3z"/>
		</g>
		<g>
			<path class="st5" d="M115.4,797.3c-11.2-1.8-22.8-0.4-33.7,2.9c3.4,4.4,7.9,7.7,12.6,10.7c4.6,3,9.4,5.8,14.6,7.6
				c8.7,3,18.5,2.9,27.2-0.1c3.3-1.1,8.6-2.5,6.9-6.9c-1.6-4-7.3-6.9-10.9-8.7C126.8,800.1,121.2,798.3,115.4,797.3z"/>
			<path class="st5" d="M324.5,724.6c7.5-8.6,17.3-14.9,27.8-19.3c0.2,5.5-1.2,11-2.8,16.3c-1.6,5.2-3.5,10.4-6.4,15.1
				c-4.8,7.9-12.4,14-21,17.3c-3.2,1.2-8.2,3.6-9.7-0.9c-1.3-4.1,1.3-10,2.8-13.7C317.5,734.1,320.7,729.1,324.5,724.6z"/>
			<path class="st5" d="M284.8,739.3c-11.1-2.3-22.8-1.3-33.8,1.6c3.2,4.5,7.6,8,12.1,11.2c4.5,3.2,9.1,6.2,14.2,8.1
				c8.6,3.4,18.3,3.6,27.2,1c3.3-1,8.7-2.1,7.1-6.6c-1.4-4-7.1-7.2-10.5-9.2C296.1,742.6,290.6,740.5,284.8,739.3z"/>
			<path class="st5" d="M344.3,774.4c8.6-0.3,17-3.1,24.6-7.2c-3.2-2.7-7-4.5-10.9-6.1c-3.9-1.5-7.8-2.9-11.9-3.5
				c-6.9-0.9-14.1,0.6-20.2,4.1c-2.3,1.3-6,3.1-4.1,6.1c1.8,2.7,6.5,4,9.4,4.9C335.4,774.1,339.9,774.6,344.3,774.4z"/>
			<path class="st5" d="M447.4,830.8c8.6-0.3,17-3.1,24.6-7.2c-3.2-2.7-7-4.5-10.9-6.1c-3.9-1.5-7.8-2.9-11.9-3.5
				c-6.9-0.9-14.1,0.6-20.2,4.1c-2.3,1.3-6,3.1-4.1,6.1c1.8,2.7,6.5,4,9.4,4.9C438.5,830.4,442.9,830.9,447.4,830.8z"/>
			<path class="st5" d="M446.8,872.8c3.7,7.8,9.6,14.4,16.3,19.7c1.3-4,1.4-8.2,1.2-12.4c-0.1-4.2-0.4-8.3-1.5-12.3
				c-1.9-6.7-6.1-12.8-11.8-16.9c-2.1-1.6-5.2-4.3-7.2-1.3c-1.8,2.7-1.1,7.5-0.8,10.5C443.6,864.5,444.9,868.8,446.8,872.8z"/>
			<path class="st5" d="M460.8,657.5c3.7,7.8,9.6,14.4,16.3,19.7c1.3-4,1.4-8.2,1.2-12.4c-0.1-4.2-0.4-8.3-1.5-12.3
				c-1.9-6.7-6.1-12.8-11.8-16.9c-2.1-1.6-5.2-4.3-7.2-1.3c-1.8,2.7-1.1,7.5-0.8,10.5C457.6,649.2,458.9,653.5,460.8,657.5z"/>
			<path class="st5" d="M517.3,760.8c3.7,7.8,9.6,14.4,16.3,19.7c1.3-4,1.4-8.2,1.2-12.4c-0.1-4.2-0.4-8.3-1.5-12.3
				c-1.9-6.7-6.1-12.8-11.8-16.9c-2.1-1.6-5.2-4.3-7.2-1.3c-1.8,2.7-1.1,7.5-0.8,10.5C514.1,752.4,515.4,756.7,517.3,760.8z"/>
			<path class="st5" d="M541.8,721.2c7.5,4.2,16.2,6.1,24.8,6.5c-1.3-4-3.7-7.5-6.2-10.8c-2.5-3.3-5.2-6.5-8.4-9.1
				c-5.5-4.4-12.4-6.8-19.4-6.9c-2.6,0-6.8-0.4-6.6,3.2c0.1,3.2,3.5,6.8,5.5,9C534.3,716.3,537.9,719.1,541.8,721.2z"/>
			<path class="st6" d="M514.3,730c-10.4-4.8-21.1-9-32-12.7c21.8-6.7,43.3-14.3,62.6-23.5c-22.3,6.2-44.7,12.2-67,18.4
				c6-8.7,12-17.5,18.1-26.2c1.2-1.8,2.5-3.6,3.3-5.6c1.4-3.4,1.5-7.3,2.8-10.8c1.3-3.4,3.7-6.5,3.6-10.1c-1.6,0-3.8-1.5-4.7-0.2
				c-4,5.9-7.4,12.2-10,18.8c-0.3,0.7-1.6,3.6-0.9,3.9c-3,4.1-6.3,7.9-9.7,11.6c-1.7-7.1-3.7-14.2-5.9-21.2
				c-0.9-2.8-5.3-1.6-4.4,1.2c2.4,7.7,4.6,15.5,6.4,23.4c0,0.2,0.1,0.3,0.1,0.4c-5.6,5.6-11.4,10.9-16.8,16.8
				c-48.9,13.1-97.8,26.2-146.7,39.3c-4.1-7.4-9-14.4-14.4-21c-1.9-2.3-5.1,1-3.2,3.2c4.9,5.9,9.3,12.3,13.1,19l-131.1,35.1
				c-12.2,3.3-24.6,6.6-35.8,12.2l-5.5-24.1c-0.7-2.9-5.1-1.6-4.4,1.2c1.9,8.3,3.8,16.7,5.8,25c-2.7,1.5-5.4,3.2-7.9,5.1
				c-10.7,7.9-18.9,18.7-28.9,27.5C73.5,861,36.3,868,0,872.3v94.4c39.7-17.6,79.6-36.1,112.9-63.9c14.8-12.3,28-26.4,41.3-40.3
				c17.8-18.7,34.5-39,56.5-52.4c11.7,1.3,22.2,7.6,33.2,11.7c14.3,5.3,30,7.1,45.1,4.9c9.4-1.3,18.5-4.1,28-4.9s19.6,0.3,27,6.1
				c8.5,6.5,10.6,11.9,20.3,16.3c21.6,9.8,46.5,8.4,70.2,6.7c7.2-0.5,14.4-1,21.6-1.5c8.6-0.6,12.9-1.1,20.7-4.7
				c-24.1,1.9-49.8,0-73.9-0.9c2.2-5.8,8.9-8.3,14.4-11.3c5.5-3,16.9-7.8,14-13.3c-7.7-1-14.4,4.8-20.4,9.8c-6,5-12.3,9.6-19.8,7.6
				c-10.1-2.6-20.5-5.2-28.9-11.4c-3.3-2.5-6.3-5.4-9.4-8.2c-8-7-18-13-28.5-14.9c-13.9-2.5-27.4,5.4-41.5,6.5
				c-14.9,1.2-29.9-7.6-43.5-14c59.4-10.4,113.4-40.2,171.4-56.7c20.4-5.8,42.3-11.6,64-18.1c12.7,4,25.2,8.7,37.3,14.3
				C514.6,735.2,516.9,731.3,514.3,730z"/>
			<g>
				<path class="st7" d="M290.4,749.4c2.8,0,5.6-1.3,7.4-3.5c1.2-1.4,1.9-3.2,3-4.7c1.6-2.2,3.8-3.9,5.8-5.8c2-1.8,3.9-4,4.5-6.7
					c0.6-2.7-0.5-5.9-3-6.9c-2.9-1.1-6,0.8-9,1.2c-2.2,0.2-4.3-0.4-6.5-0.3c-4.1,0-8.3,2.6-9.6,6.5c-0.3,1-0.4,2.1-0.6,3.2
					c-0.3,3.1,0,5.8,1.5,8.6C284.6,742.2,289,749.4,290.4,749.4z"/>
				<path class="st8" d="M301.4,736c1.2-1.2,3.4-1.5,3.9-3.1c0.3-0.9-0.1-2-0.8-2.6c-0.7-0.7-1.6-1-2.6-1.3c-3-0.8-6.5-0.6-8.6,1.7
					c-1.2,1.3-1.6,3.2-1.6,5c0.1,1.8,0.6,3.5,1.2,5.2c0.5,1.4,1.1,2.9,0.9,4.5c-0.3,1.6-1.6,3.1-3.2,3.5c-0.3,0.1-0.7,0.1-1.1,0.1
					c0.3,0.2,0.5,0.4,0.7,0.4c2.8,0,5.6-1.3,7.4-3.5c1.2-1.4,1.9-3.2,3-4.7c0.1-0.1,0.2-0.3,0.3-0.4
					C300.4,739.2,300.2,737.2,301.4,736z"/>
			</g>
			<path class="st5" d="M153.2,768c7.5-8.6,17.3-14.9,27.8-19.3c0.2,5.5-1.2,11-2.8,16.3c-1.6,5.2-3.5,10.4-6.4,15.1
				c-4.8,7.9-12.4,14-21,17.3c-3.2,1.2-8.2,3.6-9.7-0.9c-1.3-4.1,1.3-10,2.8-13.7C146.1,777.5,149.3,772.4,153.2,768z"/>
			<path class="st2" d="M122.1,824.8c1.8,3.6,2.5,8.2,6,10.2c2.5,1.5,5.7,1,8.6,0.5c2.8-0.5,5.7-1,7.9-2.8c2.3-1.8,3.6-4.6,4.2-7.4
				c1.2-5.5,0.2-11.2,0.1-16.8c-0.1-3.3,0.2-6.9,1.3-10c-2.9,1.1-5.7,2.4-8.5,3.8l-5.5-24.1c-0.7-2.9-5.1-1.6-4.4,1.2
				c1.9,8.3,3.8,16.7,5.8,25c-2.7,1.5-5.4,3.2-7.9,5.1c-4.1,3-7.8,6.4-11.4,10C119.8,821.1,121.1,822.8,122.1,824.8z"/>
			<path class="st3" d="M387.8,848.2c-4.8-1.2-9.6-2.8-14.2-4.7c1.2-1.1,2.3-2.1,3.5-3.2c-17.9-2.8-29.8-21.2-47.4-26
				c-12.5-3.4-25.7,0.8-37.6,6c1.2-1.3,0.4-2.3,1.6-3.6c-13.2,3.6-27.5,2.9-40.4-1.9c-5-1.9-10.7-4.4-15.5-2c-2,1-3.4,2.6-4.5,4.6
				c3.5,1.5,7,3.1,10.6,4.4c14.3,5.3,30,7.1,45.1,4.9c9.4-1.3,18.5-4.1,28-4.9s19.6,0.3,27,6.1c8.5,6.5,10.6,11.9,20.3,16.3
				c10.6,4.8,22.1,6.9,33.7,7.6c-0.1,0-0.1-0.1-0.2-0.1C394.9,849.8,391.3,849.1,387.8,848.2z"/>
			<path class="st3" d="M136.6,854.1c-9.7,6.5-19.5,13.1-29.2,19.6c-20.5,13.8-41.3,27.7-64.6,36.2c10.6-9.4,21.3-18.8,31.9-28.2
				c-25.4,9.9-50.3,20.9-74.8,32.9v52.2c39.7-17.6,79.6-36.1,112.9-63.9c14.8-12.3,28-26.4,41.3-40.3c15.1-15.9,29.4-32.9,46.9-45.9
				c1.1-2.6,2.1-5.3,3.1-8C181.7,823.8,159.1,838.9,136.6,854.1z"/>
			<path class="st3" d="M352.8,747.2c9.3,0.8,1.6,6.4,1.7,9c0,0.6,1.1,0.2,1.6,0.3c18-6.9,36.1-13.5,54.5-18.8
				c9.1-2.6,18.5-5.2,28-7.8c-0.7-1.6-2.3-2.9-3.8-3.9c-1.9-1.3-3.8-2.4-5.8-3.4c-28,7.5-56,15-84,22.5
				C345,747.1,350.9,747,352.8,747.2z"/>
			<path class="st3" d="M250.6,814.5c3.2-3.6,8-5.8,12.8-5.9c1.9,0,3.7,0.2,5.6-0.2c0.8-0.2,1.5-0.5,2.2-0.9
				c-11-2.4-21.8-8.4-31.8-13.1c6.8-1.2,13.6-2.6,20.3-4.3c-1.5-0.6-3.1-1-4.7-1.3c-7.6-1.3-15.4,0.5-22.4,3.4
				c-8.8,3.7-17.1,9.7-21.9,17.9c0.1,0,0.1-0.1,0.2-0.1c3,0.3,5.9,1,8.7,1.8c0.4-0.4,0.8-0.8,1.2-1.2c0.8-0.7,1.7-1.2,2.7-1.4
				c2.4-0.3,4.5,1.9,5.4,4.3c0.2,0.7,0.4,1.3,0.6,2c4.9,2.1,9.7,4.3,14.6,6.2c0.2,0.1,0.5,0.2,0.7,0.3
				C246.9,819.9,248.5,816.9,250.6,814.5z"/>
			<g>
				<g>
					<path class="st9" d="M379.7,742.9c-1.8-3.4-5.4-5.3-9.2-5c0.9-3.3,1.7-6.7,2.6-10c0.3-1.3-1.7-1.8-2-0.6
						c-0.9,3.3-1.7,6.6-2.5,9.9c-3.1,0.5-6.3-0.4-9.3,0.8c-2.6,1-4.5,3.2-6.2,5.3c-0.8,1,0.6,2.5,1.5,1.5c1.7-2.2,3.7-4.5,6.5-5.2
						c1.9-0.4,3.9-0.2,5.9-0.2c0.2,0.2,0.4,0.3,0.7,0.3c0.1,0,0.3,0,0.4,0.1c0.2,0.3,0.5,0.5,0.9,0.5c1.7,1.5,1.4,6,1.1,7.7
						c-0.2,1.3,1.8,1.9,2,0.6c0.4-2.3,0.5-6.1-0.8-8.6c2.7,0,5.3,1.5,6.6,4C378.5,745.1,380.3,744.1,379.7,742.9z"/>
					<path class="st9" d="M391.8,740c-1.8-3.4-5.4-5.3-9.2-5c0.9-3.3,1.7-6.7,2.6-10c0.3-1.3-1.7-1.8-2-0.6
						c-0.9,3.3-1.7,6.6-2.5,9.9c-3.1,0.5-6.3-0.4-9.3,0.8c-2.6,1-4.5,3.2-6.2,5.3c-0.8,1,0.6,2.5,1.5,1.5c1.7-2.2,3.7-4.5,6.5-5.2
						c1.9-0.4,3.9-0.2,5.9-0.2c0.2,0.2,0.4,0.3,0.7,0.3c0.1,0,0.3,0,0.4,0.1c0.2,0.3,0.5,0.5,0.9,0.5c1.7,1.5,1.4,6,1.1,7.7
						c-0.2,1.3,1.8,1.9,2,0.6c0.4-2.3,0.5-6.1-0.8-8.6c2.7,0,5.3,1.5,6.6,4C390.7,742.3,392.5,741.2,391.8,740z"/>
					<g>
						<path class="st9" d="M346,634c-0.6,0.5-28.8,17.4-28.3,18.4c0.5,0.9,33.1-5.2,33.1-5.2L346,634z"/>
						<path class="st3" d="M348.5,640.7c-9.3,3.5-20.4,7.7-29.7,11.7c5.8-0.3,32-5.2,32-5.2L348.5,640.7z"/>
						<path class="st10" d="M339.2,693.2c0.9,4.1,2.8,7.8,5.1,11.3c7.5,11.6,18.9,20.8,31.8,25.7c3.5,1.3,7.2,2.4,11,2.6
							c5.4,0.3,10.7-1.1,15.9-2.6c4.7-1.4,9.4-3,13.3-6c-3-2.2-6.9-2.6-10.6-3.3c-14.4-3-26.7-11.9-38.6-20.5
							c-3.4-2.5-6.8-5-9.8-7.9c-3.2-3.2-5.8-7-7.5-11.1c-0.9-2.1-1.7-10.6-4.1-11.3c-2.7-0.8-5.3,7.7-5.9,9.8
							C338.6,684.1,338.2,688.7,339.2,693.2z"/>
						<path class="st3" d="M411.8,727c-0.4-0.2-0.8-0.4-1.2-0.5c-17.6-4.8-33.9-14.7-46.4-28c-0.3-0.3-0.6-0.7-0.9-1
							c-2-1.6-4-3.2-5.8-5c-3.2-3.2-5.8-7-7.5-11.1c-0.4-0.9-0.8-3-1.3-5.2c-5.3-0.8-6,11.4-5.7,15.1c0.6,7.8,4.3,15.2,10.1,20.4
							c2.9,2.6,6.3,4.6,9.6,6.6c4.5,2.7,9,5.4,14,7.3c4.6,1.8,9.4,2.8,14.2,3.8c3.2,0.7,6.4,1.3,9.7,1.6c0.8-0.2,1.7-0.5,2.5-0.7
							C406.1,729.3,409.1,728.3,411.8,727z"/>
						<path class="st11" d="M475.1,743.7c0,0-38.6-34.8-65-60.9c0.9,0,1.4,0,1.3-0.2c-0.9-1.2-17.6-21.6-22.3-36.5
							c-0.9-3-1.8-5.7-2.5-8.1c-3-9.8-11.9-16.7-22.1-16.8c-0.2,0-0.4,0-0.6,0c-12.2,0-22.1,9.9-22.1,22.1c0,7.3,3.6,13.8,9.1,17.8
							c-4.6,2.3-8.3,6-10.1,11.5c-7.1,22.7,13.2,54.4,85.7,57.7c0,0,28.3,19.3,43.6,19.5c0.9,0,1.8,0.2,2.3-0.6
							c-1.6-0.6-3.2-1.3-4.6-2.2c2.3,0.2,4.7,0.2,7,0.4c0.7,0,1.3,0.1,1.9-0.1c1.1-0.3,1.9-1,2.6-1.9
							C478.3,745.1,476.2,744.2,475.1,743.7z"/>
						<path class="st12" d="M464.7,744.2c-8.8-4.5-17.2-9.8-25-15.8c-1.1-0.8-2.1,1-1,1.8c7.8,6,16.2,11.3,25,15.8
							C464.8,746.6,465.9,744.8,464.7,744.2z"/>
						<path class="st12" d="M461.3,735.9c-6.1-3.8-12.1-8-17.9-12.4c-1.1-0.8-2.1,1-1,1.8c5.8,4.4,11.7,8.5,17.9,12.4
							C461.4,738.4,462.5,736.6,461.3,735.9z"/>
						<path class="st12" d="M358.1,625.9c5.6,0.9,10.7,4.3,13.5,9.2c4.7,8,2.9,18.2,5.5,27.1c1.7,5.7,5.2,10.9,9.9,14.6
							c1.9,1.5,4,2.7,6.3,3.1c3.3,0.6,6.8-0.5,9.6-2.4c1-0.7,1.9-1.4,2.8-2.2c-5.6-7.5-13.6-19.5-16.7-29.2c-0.9-3-1.8-5.7-2.5-8.1
							c-3-9.8-11.9-16.7-22.1-16.8c-0.2,0-0.4,0-0.6,0c-5.5,0-10.5,2-14.4,5.3C352.3,625.7,355.3,625.4,358.1,625.9z"/>
						<path class="st10" d="M362.5,656.4c2.4-1.8,4.3-4.6,4-7.6c-0.3-3-2.7-5.3-5.3-6.8c-3.4-1.9-7.2-2.6-11.1-2.7
							c-2.6-0.1-5.4,0.1-7.9-0.5c-0.3,1.5-0.5,3-0.5,4.5c0,7.3,3.6,13.8,9.1,17.8c-2.3,1.2-4.3,2.6-6,4.5c3-2.1,6.2-3.9,9.6-5.4
							C357.2,659.1,360.1,658.2,362.5,656.4z"/>
						<path class="st12" d="M431,721.9c-14.9-2.1-29.4-6.7-42.8-13.5c-6.6-3.3-12.9-7.2-18.8-11.6c-5.8-4.3-11.3-9.6-13.9-16.5
							c-0.3-0.7-1.5-0.4-1.2,0.3c3.9,10.5,13.8,17.3,23,23c10.2,6.4,21.3,11.4,32.8,14.9c6.8,2.1,13.7,3.6,20.7,4.6
							C431.5,723.2,431.8,722,431,721.9z"/>
						<path class="st12" d="M430.9,718.1c-12.9-2.6-25.2-7.5-36.3-14.4c-0.7-0.4-1.3,0.7-0.6,1.1c11.3,7,23.7,11.9,36.6,14.5
							C431.4,719.5,431.7,718.3,430.9,718.1z"/>
						<path class="st12" d="M432.3,713.8c-9.2-2.2-18-5.9-26-10.9c-0.7-0.4-1.3,0.7-0.6,1.1c8.1,5.1,17,8.8,26.3,11
							C432.7,715.2,433.1,714,432.3,713.8z"/>
						<path class="st12" d="M430,709.9c-6.4-2.3-12.3-5.6-17.5-9.9c-0.6-0.5-1.5,0.4-0.9,0.9c5.4,4.5,11.5,7.9,18.1,10.2
							C430.4,711.4,430.7,710.2,430,709.9z"/>
						<path class="st12" d="M431.1,707.9c-4.8-2.2-9.1-5.2-13-8.8c-0.6-0.5-1.5,0.3-0.9,0.9c3.9,3.7,8.4,6.7,13.2,9
							C431.2,709.3,431.9,708.2,431.1,707.9z"/>
						<path class="st9" d="M353.2,636.6c0,1.9-1,3.5-2.3,3.5s-2.3-1.6-2.3-3.5c0-1.9,1-3.5,2.3-3.5S353.2,634.6,353.2,636.6z"/>
					</g>
				</g>
			</g>
			<g>
				<path class="st9" d="M235.6,806.7c1.2-3.6,4.5-6.1,8.2-6.4c-1.4-3.1-2.8-6.3-4.1-9.4c-0.5-1.2,1.3-2.1,1.9-0.9
					c1.4,3.1,2.7,6.2,4.1,9.3c3.1,0,6.2-1.4,9.3-0.7c2.7,0.6,4.9,2.4,7,4.3c1,0.9-0.2,2.6-1.2,1.7c-2-1.9-4.3-3.9-7.2-4.1
					c-2-0.1-3.9,0.4-5.9,0.7c-0.1,0.2-0.4,0.4-0.7,0.4c-0.1,0-0.3,0.1-0.4,0.1c-0.1,0.3-0.4,0.6-0.9,0.6c-1.4,1.8-0.4,6.1,0.1,7.7
					c0.4,1.3-1.5,2.1-1.9,0.9c-0.7-2.2-1.5-6-0.6-8.6c-2.7,0.4-5,2.3-5.9,5.1C237.1,808.7,235.2,808,235.6,806.7z"/>
				<path class="st9" d="M224.3,803.1c1.2-3.6,4.5-6.1,8.2-6.4c-1.4-3.1-2.8-6.3-4.1-9.4c-0.5-1.2,1.3-2.1,1.9-0.9
					c1.4,3.1,2.7,6.2,4.1,9.3c3.1,0,6.2-1.4,9.3-0.7c2.7,0.6,4.9,2.4,7,4.3c1,0.9-0.2,2.6-1.2,1.7c-2-1.9-4.3-3.9-7.2-4.1
					c-2-0.1-3.9,0.4-5.9,0.7c-0.1,0.2-0.4,0.4-0.7,0.4c-0.1,0-0.3,0.1-0.4,0.1c-0.1,0.3-0.4,0.6-0.9,0.6c-1.4,1.8-0.4,6.1,0.1,7.7
					c0.4,1.3-1.5,2.1-1.9,0.9c-0.7-2.2-1.5-6-0.6-8.6c-2.7,0.4-5,2.3-5.9,5.1C225.8,805.1,223.9,804.4,224.3,803.1z"/>
				<path class="st10" d="M246,728.1c7.2,14,9.5,30.6,6.3,46.1c-1.4,6.7-3.8,13.3-7.8,18.8c-3.3,4.5-7.5,8.3-11.8,12
					c-10.2,8.9-20.4,17.9-30.6,26.8c-0.7,0.6-1.9,1.3-2.5,0.6c-0.4-0.4-0.4-0.9-0.3-1.5c0.9-17,6.6-33.4,12.3-49.4
					c4.1-11.6,8.2-23.2,13.6-34.2c2.7-5.5,5.7-10.9,9.2-16C238.1,725.7,241.6,719.7,246,728.1z"/>
				<path class="st3" d="M240.5,786.6c2.8-4.7,4.7-9.9,5.9-15.3c-2.7,6.5-6.4,12.1-10.8,15.8c-7.4,6.2-15.8,21.3-22.4,34.9
					c2.2-1.9,4.4-3.9,6.6-5.8c2.8-5.1,5.9-10,9.4-14.5C233.1,796.6,237.4,792,240.5,786.6z"/>
				<path class="st9" d="M243.2,688.2c0.6,0.5,28.8,17.4,28.3,18.4c-0.5,0.9-33.1-5.2-33.1-5.2L243.2,688.2z"/>
				<path class="st3" d="M260.6,702.9c-3-0.8-6.1-1.6-9.1-2.5c-2.2-0.7-4.3-1.5-6.4-2.2c-1.6-0.6-3.3-1.2-4.9-1.8l-1.8,4.9
					c0,0,32.6,6.1,33.1,5.2c0,0,0,0,0-0.1C267.9,705.1,264.3,704,260.6,702.9z"/>
				<path class="st11" d="M247.1,710.1c3.4-3.8,5.5-8.8,5.5-14.3c0-11.8-9.6-21.4-21.4-21.4c-5.7,0-10.9,2.2-14.7,5.9
					c0,0,0,0-0.1,0.1c-1.5,1.5-2.8,3.1-3.8,5c-3.9,6.2-9.3,18.4-8.8,38.2c0,0-22.2,10.5-22.2,54.5s-1.5,61.3-1.5,61.3l-14.6,56.4
					l5.9,0.5l3.6-19.5l-0.2,19.8l5.2,0.5l3.6-19.3l-0.2,19.7l1.9,0.2l3.7-19.8l-0.2,20.1l8.2,0.7l5-50.5c0,0,19-48.5,33.8-60.9
					c14.9-12.4,21.8-46.8,8-65L247.1,710.1z"/>
				<path class="st12" d="M199.3,855c-0.1-1.4-1.8-2.1-2.8-1c-2.2,2.3-3.6,5.5-4.4,8.7c-1.1,4.3-1.5,8.7-3.2,12.8
					c-0.2,0.5-0.5,1-1,1c-0.3,0-0.6-0.2-0.8-0.4c-2.3-2.1-1.4-5.9-0.6-8.9c1.2-4.2,2-8.4,2.4-12.7c0.1-0.5-0.1-1.1-0.4-1.5
					c-1.1-1.3-2.8-0.1-3.6,1.2c-3.7,5.7-2.8,13.7-7.1,19c1.8-6.7,2.1-13.8,0.9-20.6c-0.1-0.8-1-1.2-1.7-0.8l0,0l-11.5,44.2l5.9,0.5
					l3.6-19.5l-0.2,19.8l5.2,0.5l3.6-19.3l-0.2,19.7l1.9,0.2l3.7-19.8l-0.2,20.1l8.2,0.7l3.1-31.5
					C199.7,863.2,199.5,859.1,199.3,855z"/>
				<path class="st12" d="M204.2,733.8c2.1,2.7,6.8,1.8,9-0.8c2.2-2.6,2.7-6.2,3.3-9.6c1.3-7.5,3.3-14.9,6-22
					c2.6-6.9,6-13.7,11.7-18.3c2.9-2.4,6.6-4.1,10.3-4.6c-3.6-2.9-8.2-4.6-13.2-4.6c-5.7,0-10.9,2.2-14.7,5.9c0,0,0,0-0.1,0.1
					c-1.5,1.5-2.8,3.1-3.8,5c-3.9,6.2-9.3,18.4-8.8,38.2c0,0-0.3,0.1-0.8,0.4c0,1.7,0,3.4,0,5C203,730.3,203,732.3,204.2,733.8z"/>
				<path class="st10" d="M252.6,696c0-1.5-0.2-3-0.5-4.4c-7.2,3.1-13.5,8.3-17.8,14.9c-1.8,2.8-3.3,6.6-1.3,9.2
					c1.1,1.5,3,2.1,4.7,2.7c2.1,0.8,4.2,2,6,3.3l3.3-11.4C250.5,706.5,252.6,701.5,252.6,696z"/>
				<ellipse class="st9" cx="245.5" cy="693.9" rx="1.5" ry="4.3"/>
				<path class="st12" d="M235.7,734.2c-15,20.6-25.5,44.5-30.5,69.4c-1.4,7.1-2.4,14.2-3,21.4c-0.1,1.3,2,1.3,2.1,0
					c2-25.2,9.5-49.8,21.7-71.8c3.5-6.2,7.3-12.2,11.5-18C238.2,734.2,236.4,733.1,235.7,734.2z"/>
				<path class="st12" d="M224.5,770.1c-6.3,13.5-10.9,27.7-13.6,42.4c-0.2,1.3,1.8,1.9,2,0.6c2.7-14.5,7.2-28.6,13.4-41.9
					C226.8,770,225,768.9,224.5,770.1z"/>
				<path class="st12" d="M223.7,786.2c-1.9,5.5-3.7,11-5.6,16.5c-0.4,1.3,1.6,1.8,2,0.6c1.9-5.5,3.7-11,5.6-16.5
					C226.1,785.5,224.1,785,223.7,786.2z"/>
			</g>
			<g>
				<path class="st2" d="M136.2,791.2c-5.9-3.4-11.8-6.7-17.6-10.1c-2.6-1.5-4.9,2.5-2.3,3.9c5.9,3.4,11.8,6.7,17.6,10.1
					C136.4,796.6,138.7,792.6,136.2,791.2z"/>
				<path class="st2" d="M309.5,734.5c-1.2-0.7-2.4-0.2-3.1,0.8c-1.4,1.9-3.1,3.6-4.9,5.2c-0.9,0.8-0.8,2.4,0,3.2
					c0.9,0.9,2.3,0.8,3.2,0c2.1-1.8,4-3.8,5.6-6.1C311.1,736.7,310.5,735.1,309.5,734.5z"/>
				<path class="st2" d="M483.1,666.9c-3.5,4.9-6.7,10.1-9.5,15.4c-1.3,2.6,2.6,4.9,3.9,2.3c2.8-5.4,5.9-10.5,9.5-15.4
					C488.8,666.8,484.8,664.5,483.1,666.9z"/>
			</g>
			<g>
				<path class="st7" d="M102.5,767.8c-1.7,2.2-2.4,5.2-1.8,8c0.4,1.8,1.3,3.5,1.9,5.3c0.8,2.6,0.7,5.4,1,8.1
					c0.2,2.7,0.7,5.6,2.4,7.7c1.7,2.1,4.9,3.3,7.3,1.9c2.7-1.5,3-5.2,4.6-7.8c1.1-1.9,3-3.2,4.3-4.9c2.5-3.3,3.1-8.2,0.8-11.6
					c-0.6-0.9-1.4-1.6-2.2-2.4c-2.2-2.2-4.6-3.6-7.7-4.1C111.7,767.7,103.4,766.7,102.5,767.8z"/>
				<path class="st8" d="M106.3,784.7c0.2,1.7-0.9,3.5,0,5c0.5,0.8,1.6,1.1,2.6,1c1-0.1,1.8-0.7,2.6-1.3c2.4-1.8,4.5-4.8,4-7.8
					c-0.3-1.8-1.5-3.3-3-4.3c-1.5-1.1-3.2-1.7-4.9-2.2c-1.5-0.5-3-0.9-4.1-2.1c-1.1-1.2-1.5-3.1-0.8-4.6c0.1-0.3,0.3-0.6,0.6-0.9
					c-0.3,0.1-0.6,0.2-0.7,0.3c-1.7,2.2-2.4,5.2-1.8,8c0.4,1.8,1.3,3.5,1.9,5.3c0,0.2,0.1,0.3,0.1,0.5
					C104.4,781.9,106,783,106.3,784.7z"/>
			</g>
			<g>
				<path class="st7" d="M153.6,769.8c-1.7-2.3-4.4-3.7-7.3-3.8c-1.9-0.1-3.7,0.4-5.6,0.5c-2.7,0.1-5.4-0.6-8.1-1.1
					c-2.7-0.5-5.6-0.7-8.1,0.4c-2.5,1.1-4.4,3.9-3.7,6.5c0.8,3,4.3,4.2,6.4,6.5c1.5,1.6,2.3,3.7,3.7,5.4c2.5,3.3,7.1,5.1,11,3.7
					c1-0.4,1.9-0.9,2.9-1.5c2.7-1.6,4.6-3.5,5.9-6.4C151.4,778.7,154.5,770.9,153.6,769.8z"/>
				<path class="st8" d="M136.3,769.1c-1.7-0.2-3.2-1.8-4.8-1.3c-0.9,0.3-1.5,1.3-1.6,2.2s0.2,1.9,0.6,2.8c1.2,2.8,3.4,5.6,6.5,5.8
					c1.8,0.1,3.6-0.6,4.9-1.8c1.4-1.1,2.4-2.6,3.4-4.1c0.8-1.3,1.7-2.7,3-3.4c1.5-0.8,3.4-0.6,4.7,0.4c0.3,0.2,0.5,0.5,0.7,0.8
					c0-0.4,0-0.6-0.1-0.8c-1.7-2.3-4.4-3.7-7.3-3.8c-1.9-0.1-3.7,0.4-5.6,0.5c-0.2,0-0.3,0-0.5,0C139.5,768,138,769.3,136.3,769.1z"
					/>
			</g>
			<g>
				<path class="st7" d="M332.1,724.1c-1.7-2.3-4.4-3.7-7.3-3.8c-1.9-0.1-3.7,0.4-5.6,0.5c-2.7,0.1-5.4-0.6-8.1-1.1
					c-2.7-0.5-5.6-0.7-8.1,0.4c-2.5,1.1-4.4,3.9-3.7,6.5c0.8,3,4.3,4.2,6.4,6.5c1.5,1.6,2.3,3.7,3.7,5.4c2.5,3.3,7.1,5.1,11,3.7
					c1-0.4,1.9-0.9,2.9-1.5c2.7-1.6,4.6-3.5,5.9-6.4C329.9,733,332.9,725.2,332.1,724.1z"/>
				<path class="st8" d="M314.7,723.4c-1.7-0.2-3.2-1.8-4.8-1.3c-0.9,0.3-1.5,1.3-1.6,2.2c-0.1,1,0.2,1.9,0.6,2.8
					c1.2,2.8,3.4,5.6,6.5,5.8c1.8,0.1,3.6-0.6,4.9-1.8c1.4-1.1,2.4-2.6,3.4-4.1c0.8-1.3,1.7-2.7,3-3.4c1.5-0.8,3.4-0.6,4.7,0.4
					c0.3,0.2,0.5,0.5,0.7,0.8c0-0.4,0-0.6-0.1-0.8c-1.7-2.3-4.4-3.7-7.3-3.8c-1.9-0.1-3.7,0.4-5.6,0.5c-0.2,0-0.3,0-0.5,0
					C317.9,722.3,316.4,723.6,314.7,723.4z"/>
			</g>
			<g>
				<path class="st7" d="M449.8,813.5c-1.7-2.3-4.4-3.7-7.3-3.8c-1.9-0.1-3.7,0.4-5.6,0.5c-2.7,0.1-5.4-0.6-8.1-1.1
					c-2.7-0.5-5.6-0.7-8.1,0.4c-2.5,1.1-4.4,3.9-3.7,6.5c0.8,3,4.3,4.2,6.4,6.5c1.5,1.6,2.3,3.7,3.7,5.4c2.5,3.3,7.1,5.1,11,3.7
					c1-0.4,1.9-0.9,2.9-1.5c2.7-1.6,4.6-3.5,5.9-6.4C447.6,822.4,450.7,814.6,449.8,813.5z"/>
				<path class="st8" d="M432.5,812.8c-1.7-0.2-3.2-1.8-4.8-1.3c-0.9,0.3-1.5,1.3-1.6,2.2c-0.1,1,0.2,1.9,0.6,2.8
					c1.2,2.8,3.4,5.6,6.5,5.8c1.8,0.1,3.6-0.6,4.9-1.8c1.4-1.1,2.4-2.6,3.4-4.1c0.8-1.3,1.7-2.7,3-3.4c1.5-0.8,3.4-0.6,4.7,0.4
					c0.3,0.2,0.5,0.5,0.7,0.8c0-0.4,0-0.6-0.1-0.8c-1.7-2.3-4.4-3.7-7.3-3.8c-1.9-0.1-3.7,0.4-5.6,0.5c-0.2,0-0.3,0-0.5,0
					C435.7,811.7,434.2,813,432.5,812.8z"/>
			</g>
			<g>
				<path class="st7" d="M447.7,793.7c-1.7-2.3-4.4-3.7-7.3-3.8c-1.9-0.1-3.7,0.4-5.6,0.5c-2.7,0.1-5.4-0.6-8.1-1.1
					c-2.7-0.5-5.6-0.7-8.1,0.4c-2.5,1.1-4.4,3.9-3.7,6.5c0.8,3,4.3,4.2,6.4,6.5c1.5,1.6,2.3,3.7,3.7,5.4c2.5,3.3,7.1,5.1,11,3.7
					c1-0.4,1.9-0.9,2.9-1.5c2.7-1.6,4.6-3.5,5.9-6.4C445.5,802.6,448.6,794.8,447.7,793.7z"/>
				<path class="st8" d="M430.4,793c-1.7-0.2-3.2-1.8-4.8-1.3c-0.9,0.3-1.5,1.3-1.6,2.2c-0.1,1,0.2,1.9,0.6,2.8
					c1.2,2.8,3.4,5.6,6.5,5.8c1.8,0.1,3.6-0.6,4.9-1.8c1.4-1.1,2.4-2.6,3.4-4.1c0.8-1.3,1.7-2.7,3-3.4c1.5-0.8,3.4-0.6,4.7,0.4
					c0.3,0.2,0.5,0.5,0.7,0.8c0-0.4,0-0.6-0.1-0.8c-1.7-2.3-4.4-3.7-7.3-3.8c-1.9-0.1-3.7,0.4-5.6,0.5c-0.2,0-0.3,0-0.5,0
					C433.6,791.9,432.1,793.2,430.4,793z"/>
			</g>
			<g>
				<path class="st7" d="M450.7,827.4c2.8-0.5,5.3-2.3,6.6-4.8c0.9-1.6,1.3-3.5,2.1-5.2c1.1-2.5,3-4.5,4.6-6.7
					c1.6-2.2,3.1-4.7,3.3-7.4c0.1-2.7-1.5-5.7-4.2-6.2c-3-0.6-5.7,1.9-8.7,2.8c-2.1,0.6-4.3,0.4-6.5,0.9c-4.1,0.8-7.7,4.1-8.2,8.2
					c-0.1,1.1-0.1,2.2,0,3.2c0.2,3.1,1.1,5.7,3,8.2C443.8,821.4,449.3,827.7,450.7,827.4z"/>
				<path class="st8" d="M459.1,812.2c0.9-1.4,3-2.1,3.3-3.7c0.1-1-0.5-1.9-1.3-2.4c-0.8-0.5-1.8-0.7-2.8-0.8
					c-3.1-0.2-6.5,0.6-8.1,3.2c-0.9,1.5-1,3.5-0.6,5.2c0.4,1.7,1.3,3.4,2.2,4.9c0.8,1.3,1.6,2.7,1.7,4.2c0.1,1.7-1,3.3-2.5,4
					c-0.3,0.1-0.7,0.3-1,0.3c0.3,0.2,0.6,0.3,0.8,0.2c2.8-0.5,5.3-2.3,6.6-4.8c0.9-1.6,1.3-3.5,2.1-5.2c0.1-0.1,0.1-0.3,0.2-0.4
					C458.7,815.6,458.2,813.7,459.1,812.2z"/>
			</g>
			<g>
				<path class="st7" d="M408.2,824c-1.7-2.3-4.4-3.7-7.3-3.8c-1.9-0.1-3.7,0.4-5.6,0.5c-2.7,0.1-5.4-0.6-8.1-1.1
					c-2.7-0.5-5.6-0.7-8.1,0.4c-2.5,1.1-4.4,3.9-3.7,6.5c0.8,3,4.3,4.2,6.4,6.5c1.5,1.6,2.3,3.7,3.7,5.4c2.5,3.3,7.1,5.1,11,3.7
					c1-0.4,1.9-0.9,2.9-1.5c2.7-1.6,4.6-3.5,5.9-6.4C406,832.9,409.1,825.1,408.2,824z"/>
				<path class="st8" d="M390.9,823.3c-1.7-0.2-3.2-1.8-4.8-1.3c-0.9,0.3-1.5,1.3-1.6,2.2c-0.1,1,0.2,1.9,0.6,2.8
					c1.2,2.8,3.4,5.6,6.5,5.8c1.8,0.1,3.6-0.6,4.9-1.8c1.4-1.1,2.4-2.6,3.4-4.1c0.8-1.3,1.7-2.7,3-3.4c1.5-0.8,3.4-0.6,4.7,0.4
					c0.3,0.2,0.5,0.5,0.7,0.8c0-0.4,0-0.6-0.1-0.8c-1.7-2.3-4.4-3.7-7.3-3.8c-1.9-0.1-3.7,0.4-5.6,0.5c-0.2,0-0.3,0-0.5,0
					C394.1,822.2,392.6,823.4,390.9,823.3z"/>
			</g>
			<g>
				<path class="st7" d="M523.1,681.3c-1.7-2.3-4.4-3.7-7.3-3.8c-1.9-0.1-3.7,0.4-5.6,0.5c-2.7,0.1-5.4-0.6-8.1-1.1
					c-2.7-0.5-5.6-0.7-8.1,0.4c-2.5,1.1-4.4,3.9-3.7,6.5c0.8,3,4.3,4.2,6.4,6.5c1.5,1.6,2.3,3.7,3.7,5.4c2.5,3.3,7.1,5.1,11,3.7
					c1-0.4,1.9-0.9,2.9-1.5c2.7-1.6,4.6-3.5,5.9-6.4C520.9,690.2,523.9,682.5,523.1,681.3z"/>
				<path class="st8" d="M505.8,680.6c-1.7-0.2-3.2-1.8-4.8-1.3c-0.9,0.3-1.5,1.3-1.6,2.2s0.2,1.9,0.6,2.8c1.2,2.8,3.4,5.6,6.5,5.8
					c1.8,0.1,3.6-0.6,4.9-1.8c1.4-1.1,2.4-2.6,3.4-4.1c0.8-1.3,1.7-2.7,3-3.4c1.5-0.8,3.4-0.6,4.7,0.4c0.3,0.2,0.5,0.5,0.7,0.8
					c0-0.4,0-0.6-0.1-0.8c-1.7-2.3-4.4-3.7-7.3-3.8c-1.9-0.1-3.7,0.4-5.6,0.5c-0.2,0-0.3,0-0.5,0
					C508.9,679.5,507.4,680.8,505.8,680.6z"/>
			</g>
			<g>
				<path class="st7" d="M499.5,657.6c-1.7-2.3-4.4-3.7-7.3-3.8c-1.9-0.1-3.7,0.4-5.6,0.5c-2.7,0.1-5.4-0.6-8.1-1.1
					c-2.7-0.5-5.6-0.7-8.1,0.4c-2.5,1.1-4.4,3.9-3.7,6.5c0.8,3,4.3,4.2,6.4,6.5c1.5,1.6,2.3,3.7,3.7,5.4c2.5,3.3,7.1,5.1,11,3.7
					c1-0.4,1.9-0.9,2.9-1.5c2.7-1.6,4.6-3.5,5.9-6.4C497.3,666.5,500.4,658.7,499.5,657.6z"/>
				<path class="st8" d="M482.2,656.9c-1.7-0.2-3.2-1.8-4.8-1.3c-0.9,0.3-1.5,1.3-1.6,2.2c-0.1,1,0.2,1.9,0.6,2.8
					c1.2,2.8,3.4,5.6,6.5,5.8c1.8,0.1,3.6-0.6,4.9-1.8s2.4-2.6,3.4-4.1c0.8-1.3,1.7-2.7,3-3.4c1.5-0.8,3.4-0.6,4.7,0.4
					c0.3,0.2,0.5,0.5,0.7,0.8c0-0.4,0-0.6-0.1-0.8c-1.7-2.3-4.4-3.7-7.3-3.8c-1.9-0.1-3.7,0.4-5.6,0.5c-0.2,0-0.3,0-0.5,0
					C485.4,655.8,483.9,657.1,482.2,656.9z"/>
			</g>
			<g>
				<path class="st7" d="M537.2,732.7c-1.7-2.3-4.4-3.7-7.3-3.8c-1.9-0.1-3.7,0.4-5.6,0.5c-2.7,0.1-5.4-0.6-8.1-1.1
					c-2.7-0.5-5.6-0.7-8.1,0.4c-2.5,1.1-4.4,3.9-3.7,6.5c0.8,3,4.3,4.2,6.4,6.5c1.5,1.6,2.3,3.7,3.7,5.4c2.5,3.3,7.1,5.1,11,3.7
					c1-0.4,1.9-0.9,2.9-1.5c2.7-1.6,4.6-3.5,5.9-6.4C535,741.6,538.1,733.9,537.2,732.7z"/>
				<path class="st8" d="M519.9,732c-1.7-0.2-3.2-1.8-4.8-1.3c-0.9,0.3-1.5,1.3-1.6,2.2c-0.1,1,0.2,1.9,0.6,2.8
					c1.2,2.8,3.4,5.6,6.5,5.8c1.8,0.1,3.6-0.6,4.9-1.8c1.4-1.1,2.4-2.6,3.4-4.1c0.8-1.3,1.7-2.7,3-3.4c1.5-0.8,3.4-0.6,4.7,0.4
					c0.3,0.2,0.5,0.5,0.7,0.8c0-0.4,0-0.6-0.1-0.8c-1.7-2.3-4.4-3.7-7.3-3.8c-1.9-0.1-3.7,0.4-5.6,0.5c-0.2,0-0.3,0-0.5,0
					C523.1,730.9,521.6,732.2,519.9,732z"/>
			</g>
			<g>
				<path class="st7" d="M561.6,685c-1.7-2.3-4.4-3.7-7.3-3.8c-1.9-0.1-3.7,0.4-5.6,0.5c-2.7,0.1-5.4-0.6-8.1-1.1
					c-2.7-0.5-5.6-0.7-8.1,0.4c-2.5,1.1-4.4,3.9-3.7,6.5c0.8,3,4.3,4.2,6.4,6.5c1.5,1.6,2.3,3.7,3.7,5.4c2.5,3.3,7.1,5.1,11,3.7
					c1-0.4,1.9-0.9,2.9-1.5c2.7-1.6,4.6-3.5,5.9-6.4C559.3,693.9,562.4,686.1,561.6,685z"/>
				<path class="st8" d="M544.2,684.3c-1.7-0.2-3.2-1.8-4.8-1.3c-0.9,0.3-1.5,1.3-1.6,2.2c-0.1,1,0.2,1.9,0.6,2.8
					c1.2,2.8,3.4,5.6,6.5,5.8c1.8,0.1,3.6-0.6,4.9-1.8c1.4-1.1,2.4-2.6,3.4-4.1c0.8-1.3,1.7-2.7,3-3.4c1.5-0.8,3.4-0.6,4.7,0.4
					c0.3,0.2,0.5,0.5,0.7,0.8c0-0.4,0-0.6-0.1-0.8c-1.7-2.3-4.4-3.7-7.3-3.8c-1.9-0.1-3.7,0.4-5.6,0.5c-0.2,0-0.3,0-0.5,0
					C547.4,683.2,545.9,684.5,544.2,684.3z"/>
			</g>
			<g>
				<path class="st7" d="M559.7,685.3c1.6-2.3,2-5.4,1.2-8.1c-0.5-1.8-1.6-3.4-2.3-5.1c-1-2.5-1.2-5.3-1.6-8c-0.4-2.7-1.2-5.5-3-7.5
					c-1.9-2-5.1-2.9-7.4-1.3c-2.5,1.7-2.6,5.4-4,8.2c-1,1.9-2.7,3.4-3.9,5.2c-2.3,3.4-2.5,8.4,0.1,11.6c0.7,0.8,1.5,1.5,2.3,2.2
					c2.4,2,4.9,3.2,8,3.5C550.5,686.2,558.9,686.5,559.7,685.3z"/>
				<path class="st8" d="M554.6,668.7c-0.4-1.6,0.6-3.6-0.4-4.9c-0.6-0.8-1.7-1-2.6-0.8c-0.9,0.2-1.7,0.8-2.5,1.5
					c-2.3,2-4.1,5.1-3.4,8.1c0.5,1.7,1.8,3.2,3.3,4.1c1.5,0.9,3.3,1.4,5,1.9c1.5,0.4,3.1,0.7,4.2,1.7c1.2,1.1,1.7,3,1.2,4.6
					c-0.1,0.3-0.3,0.6-0.5,0.9c0.3-0.1,0.6-0.2,0.7-0.4c1.6-2.3,2-5.4,1.2-8.1c-0.5-1.8-1.6-3.4-2.3-5.1c-0.1-0.2-0.1-0.3-0.2-0.5
					C556.7,671.4,555,670.4,554.6,668.7z"/>
			</g>
			<g>
				<path class="st7" d="M492.4,841.3c-1.7-2.3-4.4-3.7-7.3-3.8c-1.9-0.1-3.7,0.4-5.6,0.5c-2.7,0.1-5.4-0.6-8.1-1.1
					c-2.7-0.5-5.6-0.7-8.1,0.4c-2.5,1.1-4.4,3.9-3.7,6.5c0.8,3,4.3,4.2,6.4,6.5c1.5,1.6,2.3,3.7,3.7,5.4c2.5,3.3,7.1,5.1,11,3.7
					c1-0.4,1.9-0.9,2.9-1.5c2.7-1.6,4.6-3.5,5.9-6.4C490.2,850.2,493.3,842.5,492.4,841.3z"/>
				<path class="st8" d="M475.1,840.6c-1.7-0.2-3.2-1.8-4.8-1.3c-0.9,0.3-1.5,1.3-1.6,2.2c-0.1,1,0.2,1.9,0.6,2.8
					c1.2,2.8,3.4,5.6,6.5,5.8c1.8,0.1,3.6-0.6,4.9-1.8s2.4-2.6,3.4-4.1c0.8-1.3,1.7-2.7,3-3.4c1.5-0.8,3.4-0.6,4.7,0.4
					c0.3,0.2,0.5,0.5,0.7,0.8c0-0.4,0-0.6-0.1-0.8c-1.7-2.3-4.4-3.7-7.3-3.8c-1.9-0.1-3.7,0.4-5.6,0.5c-0.2,0-0.3,0-0.5,0
					C478.3,839.5,476.8,840.8,475.1,840.6z"/>
			</g>
			<g>
				<path class="st7" d="M476.2,848c2.8,0.1,5.7-1.1,7.5-3.3c1.2-1.4,2-3.1,3.1-4.6c1.6-2.2,3.9-3.8,6-5.6c2.1-1.8,4-3.9,4.7-6.5
					c0.7-2.6-0.3-5.9-2.8-7c-2.8-1.2-6,0.6-9.1,0.9c-2.2,0.2-4.3-0.5-6.5-0.5c-4.1-0.1-8.4,2.3-9.8,6.2c-0.4,1-0.5,2.1-0.7,3.2
					c-0.4,3.1-0.1,5.8,1.2,8.6C470.6,840.7,474.7,848,476.2,848z"/>
				<path class="st8" d="M487.6,835c1.2-1.2,3.4-1.4,4-2.9c0.3-0.9,0-2-0.7-2.6c-0.7-0.7-1.6-1.1-2.5-1.3c-2.9-0.9-6.5-0.8-8.6,1.4
					c-1.2,1.3-1.7,3.2-1.7,5c0,1.8,0.5,3.5,1.1,5.2c0.5,1.5,1,3,0.8,4.5c-0.3,1.6-1.6,3-3.3,3.4c-0.3,0.1-0.7,0.1-1.1,0.1
					c0.3,0.2,0.5,0.4,0.7,0.4c2.8,0.1,5.7-1.1,7.5-3.3c1.2-1.4,2-3.1,3.1-4.6c0.1-0.1,0.2-0.3,0.3-0.4
					C486.5,838.2,486.4,836.2,487.6,835z"/>
			</g>
			<g>
				<path class="st7" d="M499.3,678.1c2.8,0.1,5.7-1.1,7.5-3.3c1.2-1.4,2-3.1,3.1-4.6c1.6-2.2,3.9-3.8,6-5.6c2.1-1.8,4-3.9,4.7-6.5
					c0.7-2.6-0.3-5.9-2.8-7c-2.8-1.2-6,0.6-9.1,0.9c-2.2,0.2-4.3-0.5-6.5-0.5c-4.1-0.1-8.4,2.3-9.8,6.2c-0.4,1-0.5,2.1-0.7,3.2
					c-0.4,3.1-0.1,5.8,1.2,8.6C493.8,670.8,497.9,678,499.3,678.1z"/>
				<path class="st8" d="M510.8,665c1.2-1.2,3.4-1.4,4-2.9c0.3-0.9,0-2-0.7-2.6c-0.7-0.7-1.6-1.1-2.5-1.3c-2.9-0.9-6.5-0.8-8.6,1.4
					c-1.2,1.3-1.7,3.2-1.7,5c0,1.8,0.5,3.5,1.1,5.2c0.5,1.5,1,3,0.8,4.5c-0.3,1.6-1.6,3-3.3,3.4c-0.3,0.1-0.7,0.1-1.1,0.1
					c0.3,0.2,0.5,0.4,0.7,0.4c2.8,0.1,5.7-1.1,7.5-3.3c1.2-1.4,2-3.1,3.1-4.6c0.1-0.1,0.2-0.3,0.3-0.4
					C509.6,668.2,509.5,666.2,510.8,665z"/>
			</g>
			<g>
				<path class="st7" d="M313.9,706.4c-1.7-2.3-4.4-3.7-7.3-3.8c-1.9-0.1-3.7,0.4-5.6,0.5c-2.7,0.1-5.4-0.6-8.1-1.1
					c-2.7-0.5-5.6-0.7-8.1,0.4c-2.5,1.1-4.4,3.9-3.7,6.5c0.8,3,4.3,4.2,6.4,6.5c1.5,1.6,2.3,3.7,3.7,5.4c2.5,3.3,7.1,5.1,11,3.7
					c1-0.4,1.9-0.9,2.9-1.5c2.7-1.6,4.6-3.5,5.9-6.4C311.7,715.3,314.7,707.5,313.9,706.4z"/>
				<path class="st8" d="M296.6,705.7c-1.7-0.2-3.2-1.8-4.8-1.3c-0.9,0.3-1.5,1.3-1.6,2.2c-0.1,1,0.2,1.9,0.6,2.8
					c1.2,2.8,3.4,5.6,6.5,5.8c1.8,0.1,3.6-0.6,4.9-1.8s2.4-2.6,3.4-4.1c0.8-1.3,1.7-2.7,3-3.4c1.5-0.8,3.4-0.6,4.7,0.4
					c0.3,0.2,0.5,0.5,0.7,0.8c0-0.4,0-0.6-0.1-0.8c-1.7-2.3-4.4-3.7-7.3-3.8c-1.9-0.1-3.7,0.4-5.6,0.5c-0.2,0-0.3,0-0.5,0
					C299.7,704.6,298.2,705.9,296.6,705.7z"/>
			</g>
			<g>
				<path class="st7" d="M148.1,799.6c-2.3-1.6-5.4-2.1-8.1-1.3c-1.8,0.5-3.4,1.6-5.1,2.2c-2.5,1-5.3,1.1-8,1.5
					c-2.7,0.4-5.5,1.1-7.5,3s-2.9,5.1-1.4,7.4c1.7,2.6,5.4,2.7,8.1,4.1c1.9,1,3.4,2.7,5.2,3.9c3.4,2.3,8.3,2.5,11.6,0
					c0.8-0.7,1.5-1.5,2.2-2.3c2-2.4,3.2-4.8,3.6-7.9C148.9,808.7,149.3,800.4,148.1,799.6z"/>
				<path class="st8" d="M131.5,804.5c-1.6,0.4-3.6-0.7-4.9,0.3c-0.8,0.6-1,1.7-0.8,2.6c0.2,0.9,0.8,1.8,1.4,2.5
					c2,2.3,5.1,4.2,8,3.4c1.7-0.4,3.2-1.7,4.1-3.3c0.9-1.5,1.5-3.3,1.9-5c0.4-1.5,0.7-3.1,1.8-4.2c1.1-1.2,3-1.7,4.6-1.1
					c0.3,0.1,0.6,0.3,0.9,0.5c-0.1-0.3-0.2-0.6-0.4-0.7c-2.3-1.6-5.4-2.1-8.1-1.3c-1.8,0.5-3.4,1.6-5.1,2.2
					c-0.2,0.1-0.3,0.1-0.5,0.2C134.1,802.4,133.1,804.1,131.5,804.5z"/>
			</g>
		</g>
		<g>
			<path class="st5" d="M1326.1,158.6c7.1-1.2,14.5-0.3,21.4,1.9c-2.1,2.8-5,4.9-8,6.8c-2.9,1.9-5.9,3.7-9.2,4.8
				c-5.5,1.9-11.7,1.8-17.3,0c-2.1-0.7-5.5-1.6-4.4-4.4c1-2.5,4.7-4.4,6.9-5.5C1318.8,160.3,1322.4,159.2,1326.1,158.6z"/>
			<path class="st5" d="M1193.4,112.5c-4.7-5.4-11-9.4-17.6-12.2c-0.1,3.5,0.8,7,1.8,10.3c1,3.3,2.2,6.6,4,9.6c3,5,7.8,8.9,13.3,11
				c2.1,0.8,5.2,2.3,6.1-0.6c0.8-2.6-0.8-6.3-1.8-8.7C1197.9,118.5,1195.9,115.3,1193.4,112.5z"/>
			<path class="st5" d="M1218.6,121.8c7.1-1.4,14.4-0.8,21.4,1c-2,2.9-4.8,5.1-7.7,7.1c-2.8,2-5.8,3.9-9,5.2
				c-5.5,2.1-11.6,2.3-17.2,0.6c-2.1-0.6-5.5-1.3-4.5-4.2c0.9-2.6,4.5-4.5,6.7-5.8C1211.4,123.8,1215,122.5,1218.6,121.8z"/>
			<path class="st5" d="M1180.9,144.1c-5.5-0.2-10.8-2-15.6-4.6c2-1.7,4.5-2.9,6.9-3.8c2.4-1,5-1.8,7.6-2.2c4.4-0.6,9,0.4,12.8,2.6
				c1.4,0.8,3.8,2,2.6,3.9c-1.1,1.7-4.1,2.5-5.9,3.1C1186.5,143.8,1183.7,144.2,1180.9,144.1z"/>
			<path class="st5" d="M1115.5,179.8c-5.5-0.2-10.8-2-15.6-4.6c2-1.7,4.5-2.9,6.9-3.8c2.4-1,5-1.8,7.6-2.2c4.4-0.6,9,0.4,12.8,2.6
				c1.4,0.8,3.8,2,2.6,3.9c-1.1,1.7-4.1,2.5-5.9,3.1C1121.2,179.5,1118.3,179.9,1115.5,179.8z"/>
			<path class="st5" d="M1115.9,206.4c-2.3,4.9-6.1,9.1-10.4,12.5c-0.8-2.5-0.9-5.2-0.8-7.9c0.1-2.6,0.3-5.3,1-7.8
				c1.2-4.3,3.9-8.1,7.5-10.7c1.3-1,3.3-2.7,4.6-0.8c1.1,1.7,0.7,4.8,0.5,6.7C1117.9,201.1,1117.1,203.9,1115.9,206.4z"/>
			<path class="st5" d="M1107,69.9c-2.3,4.9-6.1,9.1-10.4,12.5c-0.8-2.5-0.9-5.2-0.8-7.9c0.1-2.6,0.3-5.3,1-7.8
				c1.2-4.3,3.9-8.1,7.5-10.7c1.3-1,3.3-2.7,4.6-0.8c1.1,1.7,0.7,4.8,0.5,6.7C1109,64.6,1108.2,67.3,1107,69.9z"/>
			<path class="st5" d="M1071.2,135.4c-2.3,4.9-6.1,9.1-10.4,12.5c-0.8-2.5-0.9-5.2-0.8-7.9c0.1-2.6,0.3-5.3,1-7.8
				c1.2-4.3,3.9-8.1,7.5-10.7c1.3-1,3.3-2.7,4.6-0.8c1.1,1.7,0.7,4.8,0.5,6.7C1073.2,130.1,1072.4,132.8,1071.2,135.4z"/>
			<path class="st5" d="M1055.7,110.3c-4.8,2.6-10.2,3.9-15.7,4.1c0.8-2.5,2.3-4.8,4-6.9c1.6-2.1,3.3-4.1,5.4-5.8
				c3.5-2.8,7.9-4.3,12.3-4.4c1.7,0,4.3-0.3,4.2,2c-0.1,2.1-2.2,4.3-3.5,5.7C1060.4,107.2,1058.1,108.9,1055.7,110.3z"/>
			<path class="st6" d="M1073.1,115.9c6.6-3,13.4-5.7,20.3-8c-13.8-4.3-27.4-9.1-39.7-14.9c14.1,3.9,28.4,7.8,42.5,11.7
				c-3.8-5.5-7.6-11.1-11.5-16.6c-0.8-1.1-1.6-2.3-2.1-3.5c-0.9-2.2-0.9-4.6-1.7-6.8c-0.8-2.1-2.3-4.1-2.3-6.4c1,0,2.4-0.9,3-0.1
				c2.5,3.7,4.7,7.8,6.3,12c0.2,0.5,1,2.3,0.6,2.5c1.9,2.6,4,5,6.2,7.3c1.1-4.5,2.3-9,3.7-13.5c0.6-1.8,3.4-1,2.8,0.8
				c-1.5,4.9-2.9,9.8-4.1,14.9c0,0.1-0.1,0.2-0.1,0.3c3.5,3.5,7.2,6.9,10.7,10.7c31,8.3,62,16.6,93,24.9c2.6-4.7,5.7-9.2,9.2-13.3
				c1.2-1.4,3.2,0.6,2,2c-3.1,3.8-5.9,7.8-8.3,12l83.1,22.3c7.7,2.1,15.6,4.2,22.7,7.7l3.5-15.3c0.4-1.8,3.2-1,2.8,0.8
				c-1.2,5.3-2.4,10.6-3.6,15.9c1.7,1,3.4,2,5,3.2c6.8,5,12,11.9,18.3,17.5c17.2,15.1,40.7,19.6,63.8,22.3V266
				c-25.2-11.1-50.5-22.9-71.6-40.5c-9.4-7.8-17.8-16.7-26.2-25.5c-11.3-11.9-21.9-24.7-35.8-33.2c-7.4,0.8-14.1,4.8-21.1,7.4
				c-9.1,3.4-19,4.5-28.6,3.1c-5.9-0.8-11.8-2.6-17.7-3.1c-6-0.6-12.4,0.2-17.2,3.9c-5.4,4.1-6.7,7.5-12.9,10.3
				c-13.7,6.2-29.5,5.3-44.5,4.2c-4.6-0.3-9.1-0.6-13.7-1c-5.5-0.4-8.2-0.7-13.1-3c15.3,1.2,31.6,0,46.9-0.6
				c-1.4-3.7-5.7-5.3-9.1-7.2c-3.5-1.9-10.7-5-8.9-8.5c4.9-0.7,9.2,3,12.9,6.2c3.8,3.2,7.8,6.1,12.6,4.8c6.4-1.6,13-3.3,18.3-7.3
				c2.1-1.6,4-3.5,6-5.2c5.1-4.5,11.4-8.3,18.1-9.5c8.8-1.6,17.4,3.4,26.3,4.1c9.5,0.7,19-4.8,27.6-8.9
				c-37.6-6.6-71.9-25.5-108.7-35.9c-12.9-3.7-26.8-7.3-40.6-11.5c-8.1,2.5-16,5.5-23.6,9.1C1072.9,119.2,1071.4,116.7,1073.1,115.9
				z"/>
			<g>
				<path class="st7" d="M1215.1,128.2c-1.8,0-3.6-0.8-4.7-2.2c-0.7-0.9-1.2-2-1.9-3c-1-1.4-2.4-2.5-3.7-3.7
					c-1.3-1.2-2.5-2.5-2.9-4.2c-0.4-1.7,0.3-3.7,1.9-4.4c1.8-0.7,3.8,0.5,5.7,0.7c1.4,0.2,2.8-0.2,4.1-0.2c2.6,0,5.3,1.6,6.1,4.1
					c0.2,0.7,0.3,1.3,0.4,2c0.2,2,0,3.7-1,5.4C1218.7,123.6,1216,128.1,1215.1,128.2z"/>
				<path class="st8" d="M1208.1,119.7c-0.7-0.8-2.1-0.9-2.5-1.9c-0.2-0.6,0.1-1.2,0.5-1.7c0.4-0.4,1-0.6,1.6-0.8
					c1.9-0.5,4.1-0.4,5.4,1.1c0.8,0.8,1,2,1,3.2c0,1.1-0.4,2.2-0.8,3.3c-0.3,0.9-0.7,1.9-0.6,2.8c0.2,1,1,2,2,2.2
					c0.2,0.1,0.4,0.1,0.7,0.1c-0.2,0.1-0.3,0.2-0.5,0.2c-1.8,0-3.6-0.8-4.7-2.2c-0.7-0.9-1.2-2-1.9-3c-0.1-0.1-0.1-0.2-0.2-0.2
					C1208.8,121.7,1208.8,120.4,1208.1,119.7z"/>
			</g>
			<path class="st5" d="M1302.1,140c-4.7-5.4-11-9.4-17.6-12.2c-0.1,3.5,0.8,7,1.8,10.3c1,3.3,2.2,6.6,4,9.6c3,5,7.8,8.9,13.3,11
				c2.1,0.8,5.2,2.3,6.1-0.6c0.8-2.6-0.8-6.3-1.8-8.7C1306.6,146,1304.6,142.8,1302.1,140z"/>
			<path class="st2" d="M1321.8,176c-1.1,2.3-1.6,5.2-3.8,6.5c-1.6,0.9-3.6,0.6-5.4,0.3c-1.8-0.3-3.6-0.7-5-1.8
				c-1.5-1.1-2.3-2.9-2.7-4.7c-0.8-3.5-0.1-7.1-0.1-10.6c0.1-2.1-0.1-4.4-0.8-6.3c1.8,0.7,3.6,1.5,5.4,2.4l3.5-15.3
				c0.4-1.8,3.2-1,2.8,0.8c-1.2,5.3-2.4,10.6-3.6,15.9c1.7,1,3.4,2,5,3.2c2.6,1.9,4.9,4.1,7.2,6.3
				C1323.3,173.6,1322.4,174.7,1321.8,176z"/>
			<path class="st3" d="M1153.3,190.8c3.1-0.8,6.1-1.8,9-3c-0.7-0.7-1.5-1.4-2.2-2c11.4-1.8,18.9-13.5,30-16.5
				c7.9-2.1,16.3,0.5,23.8,3.8c-0.7-0.8-0.2-1.5-1-2.3c8.4,2.3,17.5,1.8,25.6-1.2c3.2-1.2,6.8-2.8,9.8-1.3c1.3,0.6,2.2,1.7,2.8,2.9
				c-2.2,1-4.5,2-6.7,2.8c-9.1,3.4-19,4.5-28.6,3.1c-5.9-0.8-11.8-2.6-17.7-3.1c-6-0.6-12.4,0.2-17.2,3.9
				c-5.4,4.1-6.7,7.5-12.9,10.3c-6.7,3.1-14,4.4-21.4,4.8c0,0,0.1,0,0.1-0.1C1148.8,191.8,1151.1,191.4,1153.3,190.8z"/>
			<path class="st3" d="M1312.6,194.6c6.2,4.1,12.3,8.3,18.5,12.4c13,8.8,26.2,17.6,41,22.9c-6.8-6-13.5-11.9-20.3-17.9
				c16.1,6.3,31.9,13.3,47.4,20.8V266c-25.2-11.1-50.5-22.9-71.6-40.5c-9.4-7.8-17.8-16.7-26.2-25.5c-9.6-10.1-18.7-20.9-29.7-29.1
				c-0.7-1.7-1.3-3.4-2-5C1284,175.3,1298.3,184.9,1312.6,194.6z"/>
			<path class="st3" d="M1175.5,126.8c-5.9,0.5-1,4.1-1.1,5.7c0,0.4-0.7,0.2-1,0.2c-11.4-4.4-22.9-8.6-34.6-11.9
				c-5.8-1.6-11.7-3.3-17.8-5c0.5-1,1.5-1.8,2.4-2.5c1.2-0.8,2.4-1.5,3.7-2.2c17.8,4.8,35.5,9.5,53.3,14.3
				C1180.5,126.7,1176.7,126.7,1175.5,126.8z"/>
			<path class="st3" d="M1240.3,169.5c-2-2.3-5.1-3.7-8.1-3.7c-1.2,0-2.4,0.1-3.5-0.1c-0.5-0.1-1-0.3-1.4-0.6
				c7-1.5,13.8-5.3,20.2-8.3c-4.3-0.8-8.6-1.7-12.8-2.7c1-0.4,2-0.6,3-0.8c4.8-0.8,9.7,0.3,14.2,2.2c5.6,2.4,10.8,6.1,13.9,11.3
				c0,0-0.1,0-0.1-0.1c-1.9,0.2-3.7,0.6-5.5,1.2c-0.2-0.3-0.5-0.5-0.8-0.8c-0.5-0.4-1.1-0.8-1.7-0.9c-1.6-0.2-2.9,1.2-3.4,2.7
				c-0.2,0.4-0.3,0.9-0.4,1.3c-3.1,1.3-6.1,2.7-9.3,3.9c-0.2,0.1-0.3,0.1-0.5,0.2C1242.7,172.8,1241.7,170.9,1240.3,169.5z"/>
			<g>
				<path class="st2" d="M1312.9,154.7c3.7-2.1,7.5-4.3,11.2-6.4c1.6-0.9,3.1,1.6,1.5,2.5c-3.7,2.1-7.5,4.3-11.2,6.4
					C1312.7,158.1,1311.3,155.6,1312.9,154.7z"/>
				<path class="st2" d="M1203,118.7c0.7-0.4,1.5-0.1,2,0.5c0.9,1.2,2,2.3,3.1,3.3c0.6,0.5,0.5,1.5,0,2c-0.6,0.6-1.4,0.5-2,0
					c-1.4-1.1-2.5-2.4-3.6-3.9C1202,120.1,1202.3,119.1,1203,118.7z"/>
				<path class="st2" d="M1092.9,75.8c2.2,3.1,4.2,6.4,6,9.8c0.9,1.7-1.6,3.1-2.5,1.5c-1.8-3.4-3.8-6.7-6-9.8
					C1089.3,75.8,1091.8,74.3,1092.9,75.8z"/>
			</g>
			<g>
				<path class="st7" d="M1334.2,139.8c1.1,1.4,1.5,3.3,1.2,5.1c-0.3,1.2-0.8,2.2-1.2,3.3c-0.5,1.7-0.5,3.4-0.6,5.1
					c-0.1,1.7-0.5,3.5-1.5,4.9c-1.1,1.4-3.1,2.1-4.6,1.2c-1.7-1-1.9-3.3-2.9-5c-0.7-1.2-1.9-2-2.7-3.1c-1.6-2.1-2-5.2-0.5-7.3
					c0.4-0.6,0.9-1,1.4-1.5c1.4-1.4,2.9-2.3,4.9-2.6C1328.4,139.7,1333.6,139.1,1334.2,139.8z"/>
				<path class="st8" d="M1331.8,150.6c-0.2,1.1,0.6,2.2,0,3.1c-0.3,0.5-1,0.7-1.6,0.6c-0.6-0.1-1.1-0.4-1.6-0.8
					c-1.6-1.2-2.9-3-2.5-4.9c0.2-1.1,1-2.1,1.9-2.7c0.9-0.7,2-1.1,3.1-1.4c0.9-0.3,1.9-0.6,2.6-1.3c0.7-0.8,0.9-2,0.5-2.9
					c-0.1-0.2-0.2-0.4-0.4-0.6c0.2,0.1,0.4,0.1,0.5,0.2c1.1,1.4,1.5,3.3,1.2,5.1c-0.3,1.2-0.8,2.2-1.2,3.3c0,0.1-0.1,0.2-0.1,0.3
					C1333,148.8,1332,149.5,1331.8,150.6z"/>
			</g>
			<g>
				<path class="st7" d="M1301.8,141.1c1.1-1.4,2.8-2.3,4.6-2.4c1.2,0,2.3,0.3,3.5,0.3c1.7,0.1,3.4-0.4,5.1-0.7
					c1.7-0.3,3.5-0.5,5.1,0.2c1.6,0.7,2.8,2.5,2.3,4.2c-0.5,1.9-2.7,2.7-4,4.1c-1,1-1.5,2.3-2.3,3.4c-1.6,2.1-4.5,3.2-7,2.3
					c-0.6-0.2-1.2-0.6-1.8-0.9c-1.7-1-2.9-2.2-3.8-4C1303.2,146.7,1301.3,141.8,1301.8,141.1z"/>
				<path class="st8" d="M1312.8,140.6c1.1-0.1,2-1.1,3-0.8c0.6,0.2,0.9,0.8,1,1.4c0.1,0.6-0.1,1.2-0.4,1.8
					c-0.7,1.8-2.2,3.5-4.1,3.7c-1.1,0.1-2.3-0.4-3.1-1.1c-0.9-0.7-1.5-1.7-2.2-2.6c-0.5-0.8-1.1-1.7-1.9-2.2c-0.9-0.5-2.2-0.4-3,0.3
					c-0.2,0.1-0.3,0.3-0.5,0.5c0-0.2,0-0.4,0.1-0.5c1.1-1.4,2.8-2.3,4.6-2.4c1.2,0,2.3,0.3,3.5,0.3c0.1,0,0.2,0,0.3,0
					C1310.8,139.9,1311.7,140.8,1312.8,140.6z"/>
			</g>
			<g>
				<path class="st7" d="M1188.7,112.1c1.1-1.4,2.8-2.3,4.6-2.4c1.2,0,2.3,0.3,3.5,0.3c1.7,0.1,3.4-0.4,5.1-0.7
					c1.7-0.3,3.5-0.5,5.1,0.2c1.6,0.7,2.8,2.5,2.3,4.2c-0.5,1.9-2.7,2.7-4,4.1c-1,1-1.5,2.3-2.3,3.4c-1.6,2.1-4.5,3.2-7,2.3
					c-0.6-0.2-1.2-0.6-1.8-0.9c-1.7-1-2.9-2.2-3.8-4C1190.1,117.8,1188.1,112.8,1188.7,112.1z"/>
				<path class="st8" d="M1199.6,111.7c1.1-0.1,2-1.1,3-0.8c0.6,0.2,0.9,0.8,1,1.4c0.1,0.6-0.1,1.2-0.4,1.8
					c-0.7,1.8-2.2,3.5-4.1,3.7c-1.1,0.1-2.3-0.4-3.1-1.1c-0.9-0.7-1.5-1.7-2.2-2.6c-0.5-0.8-1.1-1.7-1.9-2.2c-0.9-0.5-2.2-0.4-3,0.3
					c-0.2,0.1-0.3,0.3-0.5,0.5c0-0.2,0-0.4,0.1-0.5c1.1-1.4,2.8-2.3,4.6-2.4c1.2,0,2.3,0.3,3.5,0.3c0.1,0,0.2,0,0.3,0
					C1197.6,111,1198.6,111.8,1199.6,111.7z"/>
			</g>
			<g>
				<path class="st7" d="M1114,168.8c1.1-1.4,2.8-2.3,4.6-2.4c1.2,0,2.3,0.3,3.5,0.3c1.7,0.1,3.4-0.4,5.1-0.7
					c1.7-0.3,3.5-0.5,5.1,0.2s2.8,2.5,2.3,4.2c-0.5,1.9-2.7,2.7-4,4.1c-1,1-1.5,2.3-2.3,3.4c-1.6,2.1-4.5,3.2-7,2.3
					c-0.6-0.2-1.2-0.6-1.8-0.9c-1.7-1-2.9-2.2-3.8-4C1115.4,174.5,1113.4,169.5,1114,168.8z"/>
				<path class="st8" d="M1125,168.4c1.1-0.1,2-1.1,3-0.8c0.6,0.2,0.9,0.8,1,1.4s-0.1,1.2-0.4,1.8c-0.7,1.8-2.2,3.5-4.1,3.7
					c-1.1,0.1-2.3-0.4-3.1-1.1c-0.9-0.7-1.5-1.7-2.2-2.6c-0.5-0.8-1.1-1.7-1.9-2.2c-0.9-0.5-2.2-0.4-3,0.3c-0.2,0.1-0.3,0.3-0.5,0.5
					c0-0.2,0-0.4,0.1-0.5c1.1-1.4,2.8-2.3,4.6-2.4c1.2,0,2.3,0.3,3.5,0.3c0.1,0,0.2,0,0.3,0C1122.9,167.7,1123.9,168.5,1125,168.4z"
					/>
			</g>
			<g>
				<path class="st7" d="M1115.3,156.2c1.1-1.4,2.8-2.3,4.6-2.4c1.2,0,2.3,0.3,3.5,0.3c1.7,0.1,3.4-0.4,5.1-0.7
					c1.7-0.3,3.5-0.5,5.1,0.2c1.6,0.7,2.8,2.5,2.3,4.2c-0.5,1.9-2.7,2.7-4,4.1c-1,1-1.5,2.3-2.3,3.4c-1.6,2.1-4.5,3.2-7,2.3
					c-0.6-0.2-1.2-0.6-1.8-0.9c-1.7-1-2.9-2.2-3.8-4C1116.7,161.9,1114.8,157,1115.3,156.2z"/>
				<path class="st8" d="M1126.3,155.8c1.1-0.1,2-1.1,3-0.8c0.6,0.2,0.9,0.8,1,1.4s-0.1,1.2-0.4,1.8c-0.7,1.8-2.2,3.5-4.1,3.7
					c-1.1,0.1-2.3-0.4-3.1-1.1c-0.9-0.7-1.5-1.7-2.2-2.6c-0.5-0.8-1.1-1.7-1.9-2.2c-0.9-0.5-2.2-0.4-3,0.3c-0.2,0.1-0.3,0.3-0.5,0.5
					c0-0.2,0-0.4,0.1-0.5c1.1-1.4,2.8-2.3,4.6-2.4c1.2,0,2.3,0.3,3.5,0.3c0.1,0,0.2,0,0.3,0C1124.3,155.1,1125.2,155.9,1126.3,155.8
					z"/>
			</g>
			<g>
				<path class="st7" d="M1113.4,177.6c-1.8-0.3-3.3-1.5-4.2-3c-0.6-1-0.8-2.2-1.3-3.3c-0.7-1.6-1.9-2.9-2.9-4.3
					c-1-1.4-2-2.9-2.1-4.7c-0.1-1.7,1-3.6,2.7-4c1.9-0.4,3.6,1.2,5.5,1.8c1.3,0.4,2.8,0.3,4.1,0.5c2.6,0.5,4.9,2.6,5.2,5.2
					c0.1,0.7,0,1.4,0,2c-0.1,2-0.7,3.6-1.9,5.2C1117.8,173.9,1114.3,177.8,1113.4,177.6z"/>
				<path class="st8" d="M1108.1,168c-0.6-0.9-1.9-1.3-2.1-2.4c-0.1-0.6,0.3-1.2,0.8-1.5c0.5-0.3,1.1-0.4,1.8-0.5
					c1.9-0.1,4.1,0.4,5.2,2c0.6,1,0.7,2.2,0.4,3.3s-0.8,2.1-1.4,3.1c-0.5,0.8-1,1.7-1.1,2.7c0,1.1,0.6,2.1,1.6,2.5
					c0.2,0.1,0.4,0.2,0.6,0.2c-0.2,0.1-0.4,0.2-0.5,0.1c-1.8-0.3-3.3-1.5-4.2-3c-0.6-1-0.8-2.2-1.3-3.3c0-0.1-0.1-0.2-0.1-0.3
					C1108.4,170.1,1108.7,168.9,1108.1,168z"/>
			</g>
			<g>
				<path class="st7" d="M1140.4,175.5c1.1-1.4,2.8-2.3,4.6-2.4c1.2,0,2.3,0.3,3.5,0.3c1.7,0.1,3.4-0.4,5.1-0.7s3.5-0.5,5.1,0.2
					c1.6,0.7,2.8,2.5,2.3,4.2c-0.5,1.9-2.7,2.7-4,4.1c-1,1-1.5,2.3-2.3,3.4c-1.6,2.1-4.5,3.2-7,2.3c-0.6-0.2-1.2-0.6-1.8-0.9
					c-1.7-1-2.9-2.2-3.8-4C1141.8,181.1,1139.8,176.2,1140.4,175.5z"/>
				<path class="st8" d="M1151.3,175c1.1-0.1,2-1.1,3-0.8c0.6,0.2,0.9,0.8,1,1.4c0.1,0.6-0.1,1.2-0.4,1.8c-0.7,1.8-2.2,3.5-4.1,3.7
					c-1.1,0.1-2.3-0.4-3.1-1.1c-0.9-0.7-1.5-1.7-2.2-2.6c-0.5-0.8-1.1-1.7-1.9-2.2c-0.9-0.5-2.2-0.4-3,0.3c-0.2,0.1-0.3,0.3-0.5,0.5
					c0-0.2,0-0.4,0.1-0.5c1.1-1.4,2.8-2.3,4.6-2.4c1.2,0,2.3,0.3,3.5,0.3c0.1,0,0.2,0,0.3,0C1149.3,174.3,1150.3,175.1,1151.3,175z"
					/>
			</g>
			<g>
				<path class="st7" d="M1067.5,85c1.1-1.4,2.8-2.3,4.6-2.4c1.2,0,2.3,0.3,3.5,0.3c1.7,0.1,3.4-0.4,5.1-0.7
					c1.7-0.3,3.5-0.5,5.1,0.2s2.8,2.5,2.3,4.2c-0.5,1.9-2.7,2.7-4,4.1c-1,1-1.5,2.3-2.3,3.4c-1.6,2.1-4.5,3.2-7,2.3
					c-0.6-0.2-1.2-0.6-1.8-0.9c-1.7-1-2.9-2.2-3.8-4C1068.9,90.6,1067,85.7,1067.5,85z"/>
				<path class="st8" d="M1078.5,84.6c1.1-0.1,2-1.1,3-0.8c0.6,0.2,0.9,0.8,1,1.4c0.1,0.6-0.1,1.2-0.4,1.8c-0.7,1.8-2.2,3.5-4.1,3.7
					c-1.1,0.1-2.3-0.4-3.1-1.1c-0.9-0.7-1.5-1.7-2.2-2.6c-0.5-0.8-1.1-1.7-1.9-2.2c-0.9-0.5-2.2-0.4-3,0.3c-0.2,0.1-0.3,0.3-0.5,0.5
					c0-0.2,0-0.4,0.1-0.5c1.1-1.4,2.8-2.3,4.6-2.4c1.2,0,2.3,0.3,3.5,0.3c0.1,0,0.2,0,0.3,0C1076.5,83.9,1077.4,84.7,1078.5,84.6z"
					/>
			</g>
			<g>
				<path class="st7" d="M1082.5,69.9c1.1-1.4,2.8-2.3,4.6-2.4c1.2,0,2.3,0.3,3.5,0.3c1.7,0.1,3.4-0.4,5.1-0.7
					c1.7-0.3,3.5-0.5,5.1,0.2c1.6,0.7,2.8,2.5,2.3,4.2c-0.5,1.9-2.7,2.7-4,4.1c-1,1-1.5,2.3-2.3,3.4c-1.6,2.1-4.5,3.2-7,2.3
					c-0.6-0.2-1.2-0.6-1.8-0.9c-1.7-1-2.9-2.2-3.8-4C1083.9,75.6,1081.9,70.7,1082.5,69.9z"/>
				<path class="st8" d="M1093.5,69.5c1.1-0.1,2-1.1,3-0.8c0.6,0.2,0.9,0.8,1,1.4c0.1,0.6-0.1,1.2-0.4,1.8c-0.7,1.8-2.2,3.5-4.1,3.7
					c-1.1,0.1-2.3-0.4-3.1-1.1c-0.9-0.7-1.5-1.7-2.2-2.6c-0.5-0.8-1.1-1.7-1.9-2.2c-0.9-0.5-2.2-0.4-3,0.3c-0.2,0.1-0.3,0.3-0.5,0.5
					c0-0.2,0-0.4,0.1-0.5c1.1-1.4,2.8-2.3,4.6-2.4c1.2,0,2.3,0.3,3.5,0.3c0.1,0,0.2,0,0.3,0C1091.4,68.8,1092.4,69.6,1093.5,69.5z"
					/>
			</g>
			<g>
				<path class="st7" d="M1058.5,117.6c1.1-1.4,2.8-2.3,4.6-2.4c1.2,0,2.3,0.3,3.5,0.3c1.7,0.1,3.4-0.4,5.1-0.7
					c1.7-0.3,3.5-0.5,5.1,0.2s2.8,2.5,2.3,4.2c-0.5,1.9-2.7,2.7-4,4.1c-1,1-1.5,2.3-2.3,3.4c-1.6,2.1-4.5,3.2-7,2.3
					c-0.6-0.2-1.2-0.6-1.8-0.9c-1.7-1-2.9-2.2-3.8-4C1059.9,123.3,1058,118.3,1058.5,117.6z"/>
				<path class="st8" d="M1069.5,117.2c1.1-0.1,2-1.1,3-0.8c0.6,0.2,0.9,0.8,1,1.4c0.1,0.6-0.1,1.2-0.4,1.8
					c-0.7,1.8-2.2,3.5-4.1,3.7c-1.1,0.1-2.3-0.4-3.1-1.1c-0.9-0.7-1.5-1.7-2.2-2.6c-0.5-0.8-1.1-1.7-1.9-2.2c-0.9-0.5-2.2-0.4-3,0.3
					c-0.2,0.1-0.3,0.3-0.5,0.5c0-0.2,0-0.4,0.1-0.5c1.1-1.4,2.8-2.3,4.6-2.4c1.2,0,2.3,0.3,3.5,0.3c0.1,0,0.2,0,0.3,0
					C1067.5,116.5,1068.5,117.3,1069.5,117.2z"/>
			</g>
			<g>
				<path class="st7" d="M1043.1,87.3c1.1-1.4,2.8-2.3,4.6-2.4c1.2,0,2.3,0.3,3.5,0.3c1.7,0.1,3.4-0.4,5.1-0.7
					c1.7-0.3,3.5-0.5,5.1,0.2s2.8,2.5,2.3,4.2c-0.5,1.9-2.7,2.7-4,4.1c-1,1-1.5,2.3-2.3,3.4c-1.6,2.1-4.5,3.2-7,2.3
					c-0.6-0.2-1.2-0.6-1.8-0.9c-1.7-1-2.9-2.2-3.8-4C1044.5,93,1042.6,88,1043.1,87.3z"/>
				<path class="st8" d="M1054.1,86.9c1.1-0.1,2-1.1,3-0.8c0.6,0.2,0.9,0.8,1,1.4c0.1,0.6-0.1,1.2-0.4,1.8c-0.7,1.8-2.2,3.5-4.1,3.7
					c-1.1,0.1-2.3-0.4-3.1-1.1c-0.9-0.7-1.5-1.7-2.2-2.6c-0.5-0.8-1.1-1.7-1.9-2.2c-0.9-0.5-2.2-0.4-3,0.3c-0.2,0.1-0.3,0.3-0.5,0.5
					c0-0.2,0-0.4,0.1-0.5c1.1-1.4,2.8-2.3,4.6-2.4c1.2,0,2.3,0.3,3.5,0.3c0.1,0,0.2,0,0.3,0C1052.1,86.2,1053,87,1054.1,86.9z"/>
			</g>
			<g>
				<path class="st7" d="M1044.3,87.5c-1-1.5-1.3-3.4-0.8-5.1c0.3-1.1,1-2.1,1.4-3.2c0.6-1.6,0.7-3.4,1-5.1c0.3-1.7,0.7-3.5,1.9-4.7
					c1.2-1.3,3.3-1.8,4.7-0.8c1.6,1.1,1.7,3.4,2.6,5.2c0.6,1.2,1.7,2.2,2.5,3.3c1.4,2.2,1.6,5.3-0.1,7.3c-0.4,0.5-1,1-1.5,1.4
					c-1.5,1.3-3.1,2-5.1,2.2C1050.1,88.1,1044.8,88.3,1044.3,87.5z"/>
				<path class="st8" d="M1047.5,77c0.2-1-0.4-2.3,0.2-3.1c0.4-0.5,1.1-0.6,1.7-0.5c0.6,0.1,1.1,0.5,1.6,0.9
					c1.5,1.3,2.6,3.2,2.1,5.1c-0.3,1.1-1.1,2-2.1,2.6c-1,0.6-2.1,0.9-3.2,1.2c-0.9,0.2-2,0.4-2.7,1.1c-0.8,0.7-1.1,1.9-0.7,2.9
					c0.1,0.2,0.2,0.4,0.3,0.6c-0.2-0.1-0.4-0.2-0.4-0.3c-1-1.5-1.3-3.4-0.8-5.1c0.3-1.1,1-2.1,1.4-3.2c0-0.1,0.1-0.2,0.1-0.3
					C1046.2,78.7,1047.3,78.1,1047.5,77z"/>
			</g>
			<g>
				<path class="st7" d="M1087,186.5c1.1-1.4,2.8-2.3,4.6-2.4c1.2,0,2.3,0.3,3.5,0.3c1.7,0.1,3.4-0.4,5.1-0.7
					c1.7-0.3,3.5-0.5,5.1,0.2s2.8,2.5,2.3,4.2c-0.5,1.9-2.7,2.7-4,4.1c-1,1-1.5,2.3-2.3,3.4c-1.6,2.1-4.5,3.2-7,2.3
					c-0.6-0.2-1.2-0.6-1.8-0.9c-1.7-1-2.9-2.2-3.8-4C1088.4,192.1,1086.4,187.2,1087,186.5z"/>
				<path class="st8" d="M1098,186c1.1-0.1,2-1.1,3-0.8c0.6,0.2,0.9,0.8,1,1.4c0.1,0.6-0.1,1.2-0.4,1.8c-0.7,1.8-2.2,3.5-4.1,3.7
					c-1.1,0.1-2.3-0.4-3.1-1.1c-0.9-0.7-1.5-1.7-2.2-2.6c-0.5-0.8-1.1-1.7-1.9-2.2c-0.9-0.5-2.2-0.4-3,0.3c-0.2,0.1-0.3,0.3-0.5,0.5
					c0-0.2,0-0.4,0.1-0.5c1.1-1.4,2.8-2.3,4.6-2.4c1.2,0,2.3,0.3,3.5,0.3c0.1,0,0.2,0,0.3,0C1095.9,185.3,1096.9,186.2,1098,186z"/>
			</g>
			<g>
				<path class="st7" d="M1097.3,190.7c-1.8,0.1-3.6-0.7-4.8-2.1c-0.8-0.9-1.3-2-2-2.9c-1-1.4-2.5-2.4-3.8-3.5
					c-1.3-1.1-2.6-2.5-3-4.1s0.2-3.7,1.8-4.4c1.8-0.8,3.8,0.4,5.7,0.6c1.4,0.1,2.7-0.3,4.1-0.3c2.6-0.1,5.3,1.5,6.2,3.9
					c0.2,0.6,0.3,1.3,0.4,2c0.3,2,0.1,3.7-0.8,5.5C1100.8,186.1,1098.2,190.7,1097.3,190.7z"/>
				<path class="st8" d="M1090,182.5c-0.8-0.7-2.2-0.9-2.5-1.9c-0.2-0.6,0-1.2,0.5-1.7s1-0.7,1.6-0.8c1.9-0.6,4.1-0.5,5.5,0.9
					c0.8,0.8,1.1,2,1.1,3.1c0,1.1-0.3,2.2-0.7,3.3c-0.3,0.9-0.7,1.9-0.5,2.8c0.2,1,1,1.9,2.1,2.2c0.2,0,0.4,0.1,0.7,0.1
					c-0.2,0.1-0.3,0.2-0.4,0.2c-1.8,0.1-3.6-0.7-4.8-2.1c-0.8-0.9-1.3-2-2-2.9c-0.1-0.1-0.1-0.2-0.2-0.2
					C1090.7,184.5,1090.8,183.2,1090,182.5z"/>
			</g>
			<g>
				<path class="st7" d="M1082.6,82.9c-1.8,0.1-3.6-0.7-4.8-2.1c-0.8-0.9-1.3-2-2-2.9c-1-1.4-2.5-2.4-3.8-3.5
					c-1.3-1.1-2.6-2.5-3-4.1c-0.4-1.7,0.2-3.7,1.8-4.4c1.8-0.8,3.8,0.4,5.7,0.6c1.4,0.1,2.7-0.3,4.1-0.3c2.6-0.1,5.3,1.5,6.2,3.9
					c0.2,0.6,0.3,1.3,0.4,2c0.3,2,0.1,3.7-0.8,5.5C1086.1,78.3,1083.5,82.9,1082.6,82.9z"/>
				<path class="st8" d="M1075.3,74.7c-0.8-0.7-2.2-0.9-2.5-1.9c-0.2-0.6,0-1.2,0.5-1.7c0.4-0.4,1-0.7,1.6-0.8
					c1.9-0.6,4.1-0.5,5.5,0.9c0.8,0.8,1.1,2,1.1,3.1c0,1.1-0.3,2.2-0.7,3.3c-0.3,0.9-0.7,1.9-0.5,2.8c0.2,1,1,1.9,2.1,2.2
					c0.2,0,0.4,0.1,0.7,0.1c-0.2,0.1-0.3,0.2-0.4,0.2c-1.8,0.1-3.6-0.7-4.8-2.1c-0.8-0.9-1.3-2-2-2.9c-0.1-0.1-0.1-0.2-0.2-0.2
					C1076.1,76.7,1076.1,75.4,1075.3,74.7z"/>
			</g>
			<g>
				<path class="st7" d="M1200.2,100.9c1.1-1.4,2.8-2.3,4.6-2.4c1.2,0,2.3,0.3,3.5,0.3c1.7,0.1,3.4-0.4,5.1-0.7
					c1.7-0.3,3.5-0.5,5.1,0.2c1.6,0.7,2.8,2.5,2.3,4.2c-0.5,1.9-2.7,2.7-4,4.1c-1,1-1.5,2.3-2.3,3.4c-1.6,2.1-4.5,3.2-7,2.3
					c-0.6-0.2-1.2-0.6-1.8-0.9c-1.7-1-2.9-2.2-3.8-4C1201.6,106.5,1199.6,101.6,1200.2,100.9z"/>
				<path class="st8" d="M1211.2,100.5c1.1-0.1,2-1.1,3-0.8c0.6,0.2,0.9,0.8,1,1.4c0.1,0.6-0.1,1.2-0.4,1.8
					c-0.7,1.8-2.2,3.5-4.1,3.7c-1.1,0.1-2.3-0.4-3.1-1.1c-0.9-0.7-1.5-1.7-2.2-2.6c-0.5-0.8-1.1-1.7-1.9-2.2c-0.9-0.5-2.2-0.4-3,0.3
					c-0.2,0.1-0.3,0.3-0.5,0.5c0-0.2,0-0.4,0.1-0.5c1.1-1.4,2.8-2.3,4.6-2.4c1.2,0,2.3,0.3,3.5,0.3c0.1,0,0.2,0,0.3,0
					C1209.2,99.8,1210.1,100.6,1211.2,100.5z"/>
			</g>
			<g>
				<path class="st7" d="M1305.3,160c1.5-1,3.4-1.3,5.1-0.8c1.1,0.3,2.1,1,3.2,1.4c1.6,0.6,3.4,0.7,5.1,1c1.7,0.3,3.5,0.7,4.8,1.9
					c1.3,1.2,1.9,3.2,0.9,4.7c-1.1,1.6-3.4,1.7-5.2,2.6c-1.2,0.6-2.2,1.7-3.3,2.5c-2.2,1.5-5.3,1.6-7.3,0c-0.5-0.4-1-0.9-1.4-1.5
					c-1.3-1.5-2-3.1-2.3-5C1304.8,165.8,1304.6,160.5,1305.3,160z"/>
				<path class="st8" d="M1315.9,163.1c1,0.2,2.3-0.4,3.1,0.2c0.5,0.4,0.6,1.1,0.5,1.7c-0.1,0.6-0.5,1.1-0.9,1.6
					c-1.3,1.5-3.2,2.7-5.1,2.2c-1.1-0.3-2-1.1-2.6-2.1c-0.6-1-0.9-2.1-1.2-3.2c-0.2-0.9-0.5-1.9-1.1-2.7c-0.7-0.8-1.9-1.1-2.9-0.7
					c-0.2,0.1-0.4,0.2-0.6,0.3c0.1-0.2,0.1-0.4,0.3-0.4c1.5-1,3.4-1.3,5.1-0.8c1.1,0.3,2.1,1,3.2,1.4c0.1,0,0.2,0.1,0.3,0.1
					C1314.2,161.8,1314.8,162.9,1315.9,163.1z"/>
			</g>
		</g>
		<g>
			<path class="st7" d="M214.7,79c-4.1-5.4-10.7-8.9-17.5-9.1c-4.5-0.2-8.9,1-13.4,1.1c-6.6,0.3-13-1.6-19.5-2.8
				c-6.5-1.2-13.4-1.7-19.4,1c-6,2.7-10.6,9.4-8.9,15.8c2,7.2,10.3,10.2,15.4,15.6c3.6,3.8,5.7,8.9,8.8,13.1
				c6,7.9,17.1,12.3,26.5,8.9c2.4-0.9,4.7-2.2,6.9-3.5c6.5-3.9,11.1-8.5,14.3-15.4C209.4,100.4,216.8,81.7,214.7,79z"/>
			<path class="st8" d="M173,77.3c-4-0.5-7.7-4.3-11.6-3c-2.2,0.7-3.6,3.1-3.8,5.4c-0.2,2.3,0.5,4.6,1.4,6.8
				c2.8,6.8,8.3,13.5,15.7,14.1c4.3,0.3,8.6-1.5,11.9-4.2c3.3-2.7,5.9-6.3,8.2-10c2-3.1,4-6.4,7.3-8.2c3.5-1.9,8.2-1.5,11.3,1
				c0.7,0.5,1.3,1.2,1.8,1.8c0-0.9-0.1-1.5-0.4-1.9c-4.1-5.4-10.7-8.9-17.5-9.1c-4.5-0.2-8.9,1-13.4,1.1c-0.4,0-0.8,0-1.2,0
				C180.6,74.6,177,77.7,173,77.3z"/>
		</g>
		<g>
			<path class="st7" d="M392.3,182.7c-4.1-5.4-10.7-8.9-17.5-9.1c-4.5-0.2-8.9,1-13.4,1.1c-6.6,0.3-13-1.6-19.5-2.8
				c-6.5-1.2-13.4-1.7-19.4,1c-6,2.7-10.6,9.4-8.9,15.8c2,7.2,10.3,10.2,15.4,15.6c3.6,3.8,5.7,8.9,8.8,13.1
				c6,7.9,17.1,12.3,26.5,8.9c2.4-0.9,4.7-2.2,6.9-3.5c6.5-3.9,11.1-8.5,14.3-15.4C386.9,204.2,394.3,185.5,392.3,182.7z"/>
			<path class="st8" d="M350.5,181c-4-0.5-7.7-4.3-11.6-3c-2.2,0.7-3.6,3.1-3.8,5.4c-0.2,2.3,0.5,4.6,1.4,6.8
				c2.8,6.8,8.3,13.5,15.7,14.1c4.3,0.3,8.6-1.5,11.9-4.2c3.3-2.7,5.9-6.3,8.2-10c2-3.1,4-6.4,7.3-8.2c3.5-1.9,8.2-1.5,11.3,1
				c0.7,0.5,1.3,1.2,1.8,1.8c0-0.9-0.1-1.5-0.4-1.9c-4.1-5.4-10.7-8.9-17.5-9.1c-4.5-0.2-8.9,1-13.4,1.1c-0.4,0-0.8,0-1.2,0
				C358.1,178.4,354.6,181.5,350.5,181z"/>
		</g>
		<g>
			<path class="st7" d="M418.3,203c6.1-3,10.7-8.9,12.2-15.5c1-4.4,0.7-8.9,1.4-13.4c1-6.5,4-12.5,6.3-18.7
				c2.4-6.1,4.2-12.9,2.7-19.3c-1.5-6.4-7.3-12.2-13.9-11.7c-7.4,0.6-12,8.2-18.2,12.2c-4.4,2.9-9.8,3.9-14.5,6.3
				c-8.9,4.5-15.2,14.5-13.7,24.4c0.4,2.6,1.3,5,2.2,7.5c2.6,7.1,6.3,12.5,12.5,16.9C398.2,193.8,415.2,204.6,418.3,203z"/>
			<path class="st8" d="M427.7,162.3c1.2-3.9,5.7-6.8,5.1-10.8c-0.3-2.3-2.3-4.1-4.6-4.8c-2.2-0.7-4.6-0.4-6.9,0.1
				c-7.2,1.5-14.8,5.7-16.7,12.8c-1.1,4.2-0.1,8.7,2,12.5c2.1,3.8,5.1,7,8.3,9.9c2.7,2.5,5.6,5.2,6.7,8.7c1.2,3.8,0,8.3-3.1,10.9
				c-0.6,0.6-1.4,1-2.1,1.4c0.8,0.2,1.5,0.2,1.9,0c6.1-3,10.7-8.9,12.2-15.5c1-4.4,0.7-8.9,1.4-13.4c0.1-0.4,0.1-0.8,0.2-1.2
				C428.9,170.3,426.5,166.2,427.7,162.3z"/>
		</g>
		<g>
			<path class="st7" d="M406.3,266.6c6.1-3,10.7-8.9,12.2-15.5c1-4.4,0.7-8.9,1.4-13.4c1-6.5,4-12.5,6.3-18.7
				c2.4-6.1,4.2-12.9,2.7-19.3c-1.5-6.4-7.3-12.2-13.9-11.7c-7.4,0.6-12,8.2-18.2,12.2c-4.4,2.9-9.8,3.9-14.5,6.3
				c-8.9,4.5-15.2,14.5-13.7,24.4c0.4,2.6,1.3,5,2.2,7.5c2.6,7.1,6.3,12.5,12.5,16.9C386.2,257.4,403.2,268.1,406.3,266.6z"/>
			<path class="st8" d="M415.7,225.9c1.2-3.9,5.7-6.8,5.1-10.8c-0.3-2.3-2.3-4.1-4.6-4.8c-2.2-0.7-4.6-0.4-6.9,0.1
				c-7.2,1.5-14.8,5.7-16.7,12.8c-1.1,4.2-0.1,8.7,2,12.5c2.1,3.8,5.1,7,8.3,9.9c2.7,2.5,5.6,5.2,6.7,8.7c1.2,3.8,0,8.3-3.1,10.9
				c-0.6,0.6-1.4,1-2.1,1.4c0.8,0.2,1.5,0.2,1.9,0c6.1-3,10.7-8.9,12.2-15.5c1-4.4,0.7-8.9,1.4-13.4c0.1-0.4,0.1-0.8,0.2-1.2
				C416.9,233.9,414.5,229.8,415.7,225.9z"/>
		</g>
		<g>
			<path class="st7" d="M371,930.9c7.5-3.7,13.2-10.9,15.1-19.1c1.2-5.4,0.9-11,1.7-16.5c1.2-8,4.9-15.4,7.8-23
				c2.9-7.6,5.1-15.8,3.3-23.7c-1.9-7.9-9-15-17.1-14.4c-9.1,0.7-14.8,10.1-22.5,15.1c-5.5,3.5-12,4.8-17.8,7.7
				c-11,5.5-18.8,17.9-16.8,30c0.5,3.2,1.6,6.2,2.7,9.2c3.2,8.8,7.8,15.4,15.4,20.8C346.2,919.6,367.2,932.8,371,930.9z"/>
			<path class="st8" d="M382.6,880.7c1.5-4.8,7-8.3,6.3-13.3c-0.4-2.8-2.9-5.1-5.6-5.9c-2.8-0.8-5.7-0.5-8.5,0.1
				c-8.9,1.8-18.2,7-20.6,15.8c-1.4,5.1-0.1,10.7,2.4,15.4c2.6,4.7,6.3,8.6,10.2,12.2c3.3,3.1,6.9,6.4,8.3,10.7
				c1.5,4.7-0.1,10.3-3.8,13.5c-0.8,0.7-1.7,1.3-2.6,1.7c1,0.2,1.9,0.3,2.4,0c7.5-3.7,13.2-10.9,15.1-19.1c1.2-5.4,0.9-11,1.7-16.5
				c0.1-0.5,0.2-1,0.3-1.4C384.1,890.6,381.1,885.5,382.6,880.7z"/>
		</g>
		<g>
			<path class="st7" d="M1314.8,952.7c7.5-3.7,13.2-10.9,15.1-19.1c1.2-5.4,0.9-11,1.7-16.5c1.2-8,4.9-15.4,7.8-23
				c2.9-7.6,5.1-15.8,3.3-23.7c-1.9-7.9-9-15-17.1-14.4c-9.1,0.7-14.8,10.1-22.5,15.1c-5.5,3.5-12,4.8-17.8,7.7
				c-11,5.5-18.8,17.9-16.8,30c0.5,3.2,1.6,6.2,2.7,9.2c3.2,8.8,7.8,15.4,15.4,20.8C1290.1,941.4,1311,954.6,1314.8,952.7z"/>
			<path class="st8" d="M1326.4,902.5c1.5-4.8,7-8.3,6.3-13.3c-0.4-2.8-2.9-5.1-5.6-5.9c-2.8-0.8-5.7-0.5-8.5,0.1
				c-8.9,1.8-18.2,7-20.6,15.8c-1.4,5.1-0.1,10.7,2.4,15.4c2.6,4.7,6.3,8.6,10.2,12.2c3.3,3.1,6.9,6.4,8.3,10.7
				c1.5,4.7-0.1,10.3-3.8,13.5c-0.8,0.7-1.7,1.3-2.6,1.7c1,0.2,1.9,0.3,2.4,0c7.5-3.7,13.2-10.9,15.1-19.1c1.2-5.4,0.9-11,1.7-16.5
				c0.1-0.5,0.2-1,0.3-1.4C1327.9,912.4,1324.9,907.3,1326.4,902.5z"/>
		</g>
		<g>
			<path class="st7" d="M752.4,118.1c7.5-3.7,13.2-10.9,15.1-19.1c1.2-5.4,0.9-11,1.7-16.5c1.2-8,4.9-15.4,7.8-23
				c2.9-7.6,5.1-15.8,3.3-23.7s-9-15-17.1-14.4c-9.1,0.7-14.8,10.1-22.5,15.1c-5.5,3.5-12,4.8-17.8,7.7c-11,5.5-18.8,17.9-16.8,30
				c0.5,3.2,1.6,6.2,2.7,9.2c3.2,8.8,7.8,15.4,15.4,20.8C727.7,106.7,748.6,120,752.4,118.1z"/>
			<path class="st8" d="M764.1,67.9c1.5-4.8,7-8.3,6.3-13.3c-0.4-2.8-2.9-5.1-5.6-5.9c-2.8-0.8-5.7-0.5-8.5,0.1
				c-8.9,1.8-18.2,7-20.6,15.8c-1.4,5.1-0.1,10.7,2.4,15.4c2.6,4.7,6.3,8.6,10.2,12.2c3.3,3.1,6.9,6.4,8.3,10.7
				c1.5,4.7-0.1,10.3-3.8,13.5c-0.8,0.7-1.7,1.3-2.6,1.7c1,0.2,1.9,0.3,2.4,0c7.5-3.7,13.2-10.9,15.1-19.1c1.2-5.4,0.9-11,1.7-16.5
				c0.1-0.5,0.2-1,0.3-1.4C765.5,77.8,762.5,72.7,764.1,67.9z"/>
		</g>
		<g>
			<path class="st7" d="M1293.5,324.4c7.5-3.7,13.2-10.9,15.1-19.1c1.2-5.4,0.9-11,1.7-16.5c1.2-8,4.9-15.4,7.8-23
				c2.9-7.6,5.1-15.8,3.3-23.7s-9-15-17.1-14.4c-9.1,0.7-14.8,10.1-22.5,15.1c-5.5,3.5-12,4.8-17.8,7.7c-11,5.5-18.8,17.9-16.8,30
				c0.5,3.2,1.6,6.2,2.7,9.2c3.2,8.8,7.8,15.4,15.4,20.8C1268.7,313.1,1289.7,326.3,1293.5,324.4z"/>
			<path class="st8" d="M1305.1,274.2c1.5-4.8,7-8.3,6.3-13.3c-0.4-2.8-2.9-5.1-5.6-5.9c-2.8-0.8-5.7-0.5-8.5,0.1
				c-8.9,1.8-18.2,7-20.6,15.8c-1.4,5.1-0.1,10.7,2.4,15.4c2.6,4.7,6.3,8.6,10.2,12.2c3.3,3.1,6.9,6.4,8.3,10.7
				c1.5,4.7-0.1,10.3-3.8,13.5c-0.8,0.7-1.7,1.3-2.6,1.7c1,0.2,1.9,0.3,2.4,0c7.5-3.7,13.2-10.9,15.1-19.1c1.2-5.4,0.9-11,1.7-16.5
				c0.1-0.5,0.2-1,0.3-1.4C1306.6,284.1,1303.6,279.1,1305.1,274.2z"/>
		</g>
		<g>
			<path class="st7" d="M1202.7,544.5c4.1-2,7.2-5.9,8.2-10.4c0.7-2.9,0.5-6,0.9-9c0.7-4.4,2.7-8.4,4.2-12.5
				c1.6-4.1,2.8-8.6,1.8-12.9c-1-4.3-4.9-8.2-9.3-7.8c-5,0.4-8,5.5-12.2,8.2c-3,1.9-6.5,2.6-9.7,4.2c-6,3-10.2,9.7-9.2,16.3
				c0.3,1.7,0.9,3.4,1.5,5c1.7,4.8,4.2,8.4,8.4,11.3C1189.2,538.4,1200.6,545.6,1202.7,544.5z"/>
			<path class="st8" d="M1209,517.2c0.8-2.6,3.8-4.5,3.4-7.2c-0.2-1.5-1.6-2.8-3.1-3.2c-1.5-0.4-3.1-0.3-4.6,0
				c-4.9,1-9.9,3.8-11.2,8.6c-0.8,2.8-0.1,5.8,1.3,8.4c1.4,2.5,3.4,4.7,5.5,6.7c1.8,1.7,3.7,3.5,4.5,5.8c0.8,2.6,0,5.6-2.1,7.3
				c-0.4,0.4-0.9,0.7-1.4,0.9c0.6,0.1,1,0.1,1.3,0c4.1-2,7.2-5.9,8.2-10.4c0.7-2.9,0.5-6,0.9-9c0-0.3,0.1-0.5,0.1-0.8
				C1209.8,522.6,1208.2,519.9,1209,517.2z"/>
		</g>
		<g>
			<path class="st7" d="M277.2,402.2c1.5,4.3,4.9,7.9,9.2,9.5c2.8,1.1,5.9,1.3,8.8,2.1c4.2,1.2,8,3.7,11.8,5.9
				c3.9,2.1,8.2,3.9,12.6,3.5c4.4-0.4,8.8-3.8,9-8.2c0.3-5-4.4-8.7-6.5-13.2c-1.5-3.2-1.7-6.8-2.9-10.2c-2.2-6.3-8.3-11.4-15-11.3
				c-1.7,0-3.5,0.4-5.2,0.8c-5,1.1-8.9,3.1-12.3,6.8C285.1,389.7,276.4,400,277.2,402.2z"/>
			<path class="st8" d="M303.4,412.1c2.5,1.1,4,4.4,6.7,4.4c1.6,0,2.9-1.2,3.6-2.6c0.6-1.4,0.7-3,0.6-4.6c-0.3-4.9-2.4-10.3-7-12.3
				c-2.7-1.1-5.8-0.8-8.5,0.2c-2.7,1-5.1,2.8-7.3,4.6c-1.9,1.6-3.9,3.3-6.4,3.7c-2.7,0.5-5.5-0.8-7-3c-0.3-0.5-0.6-1-0.7-1.5
				c-0.2,0.5-0.3,1-0.2,1.3c1.5,4.3,4.9,7.9,9.2,9.5c2.8,1.1,5.9,1.3,8.8,2.1c0.3,0.1,0.5,0.2,0.8,0.2
				C298,412.2,300.9,411,303.4,412.1z"/>
		</g>
		<g>
			<path class="st7" d="M219.2,116.3c6.3,2.5,13.8,1.9,19.7-1.4c3.9-2.2,7.1-5.5,10.8-8c5.5-3.7,11.9-5.5,18-7.9
				c6.1-2.4,12.3-5.6,16-11c3.7-5.4,4.1-13.6-0.7-18.1c-5.4-5.1-14.1-3.3-21.3-5.2c-5.1-1.3-9.5-4.6-14.4-6.5
				c-9.3-3.6-21-1.5-27.2,6.3c-1.6,2-2.8,4.3-4,6.6c-3.5,6.7-5,13.1-4.1,20.6C212.4,95.3,215.9,115.1,219.2,116.3z"/>
			<path class="st8" d="M255.6,95.8c3.7-1.7,8.8-0.4,11.4-3.5c1.5-1.8,1.5-4.5,0.5-6.6c-1-2.1-2.8-3.7-4.7-5.1
				c-6-4.4-14.1-7.1-20.7-3.7c-3.8,2-6.5,5.8-7.9,9.9c-1.4,4.1-1.7,8.5-1.8,12.8c-0.1,3.7,0,7.6-1.9,10.8c-2,3.5-6.2,5.6-10.2,5.1
				c-0.8-0.1-1.7-0.3-2.5-0.6c0.4,0.7,0.9,1.3,1.3,1.4c6.3,2.5,13.8,1.9,19.7-1.4c3.9-2.2,7.1-5.5,10.8-8c0.3-0.2,0.7-0.4,1-0.6
				C250.5,102.1,251.9,97.5,255.6,95.8z"/>
		</g>
		<g>
			<path class="st7" d="M234.8,142c-5.8-3.6-13.2-4.4-19.6-2.1c-4.2,1.5-8,4.1-12.1,5.9c-6,2.6-12.7,3.3-19.2,4.5
				c-6.5,1.2-13.1,3.3-17.7,8c-4.6,4.7-6.5,12.7-2.5,17.9c4.4,6,13.3,5.8,20,9c4.8,2.2,8.5,6.2,13,8.9c8.5,5.2,20.4,5.2,27.9-1.3
				c2-1.7,3.6-3.8,5.2-5.8c4.6-6,7.2-12,7.7-19.5C237.6,163.9,237.7,143.8,234.8,142z"/>
			<path class="st8" d="M195.3,155.6c-3.9,1-8.7-1.2-11.9,1.4c-1.8,1.5-2.2,4.2-1.6,6.4c0.6,2.2,2.1,4.1,3.7,5.8
				c5.1,5.4,12.6,9.5,19.7,7.4c4.1-1.3,7.4-4.5,9.6-8.3c2.1-3.8,3.2-8,4-12.3c0.7-3.6,1.4-7.5,3.8-10.3c2.6-3.1,7.1-4.4,10.9-3.2
				c0.8,0.3,1.6,0.6,2.3,1.1c-0.3-0.8-0.6-1.4-1-1.6c-5.8-3.6-13.2-4.4-19.6-2.1c-4.2,1.5-8,4.1-12.1,5.9c-0.4,0.2-0.7,0.3-1.1,0.4
				C201.4,150.4,199.2,154.6,195.3,155.6z"/>
		</g>
		<g>
			<path class="st7" d="M216.8,22.9c-5.8-3.6-13.2-4.4-19.6-2.1c-4.2,1.5-8,4.1-12.1,5.9c-6,2.6-12.7,3.3-19.2,4.5
				c-6.5,1.2-13.1,3.3-17.7,8c-4.6,4.7-6.5,12.7-2.5,17.9c4.4,6,13.3,5.8,20,9c4.8,2.2,8.5,6.2,13,8.9c8.5,5.2,20.4,5.2,27.9-1.3
				c2-1.7,3.6-3.8,5.2-5.8c4.6-6,7.2-12,7.7-19.5C219.6,44.9,219.7,24.7,216.8,22.9z"/>
			<path class="st8" d="M177.3,36.6c-3.9,1-8.7-1.2-11.9,1.4c-1.8,1.5-2.2,4.2-1.6,6.4c0.6,2.2,2.1,4.1,3.7,5.8
				c5.1,5.4,12.6,9.5,19.7,7.4c4.1-1.3,7.4-4.5,9.6-8.3c2.1-3.8,3.2-8,4-12.3c0.7-3.6,1.4-7.5,3.8-10.3c2.6-3.1,7.1-4.4,10.9-3.2
				c0.8,0.3,1.6,0.6,2.3,1.1c-0.3-0.8-0.6-1.4-1-1.6c-5.8-3.6-13.2-4.4-19.6-2.1c-4.2,1.5-8,4.1-12.1,5.9c-0.4,0.2-0.7,0.3-1.1,0.4
				C183.4,31.3,181.2,35.5,177.3,36.6z"/>
		</g>
	</g>
</g>
</svg>
